<?xml version="1.0" encoding="UTF-8"?>
<svg width="250" height="150" version="1.1" viewBox="0 0 250 150" xmlns="http://www.w3.org/2000/svg">
 <g transform="translate(-5)">
  <path d="m5 0h250v150h-250z" fill="#4a4a4a"/>
  <path d="m255 0v150h-250v-150zm-1 1h-248v148h248z" fill="#2c2c2c"/>
  <g id="header">
   <g id="perf_male_square">
    <path d="m46.5 29.25h9c1.657 0 3 1.343 3 3v9c0 1.657-1.343 3-3 3h-9c-1.657 0-3-1.343-3-3v-9c0-1.657 1.343-3 3-3z" fill="#bfbfbf"/>
    <path d="m54 40.226c0 1.657-1.343 3-3 3s-3-1.343-3-3v-3.6h6z" fill="#737373"/>
    <path d="m51 40.25c-1.933 0-3.5-1.567-3.5-3.5s1.567-3.5 3.5-3.5 3.5 1.567 3.5 3.5-1.567 3.5-3.5 3.5z" fill="#ededed"/>
    <path d="m51 33.25c1.933 0 3.5 1.567 3.5 3.5s-1.567 3.5-3.5 3.5-3.5-1.567-3.5-3.5 1.567-3.5 3.5-3.5zm0 0.5c-1.657 0-3 1.343-3 3s1.343 3 3 3 3-1.343 3-3-1.343-3-3-3z" fill="#737373"/>
   </g>
   <path d="m46.626 105.75h9c1.657 0 3 1.343 3 3v9c0 1.657-1.343 3-3 3h-9c-1.657 0-3-1.343-3-3v-9c0-1.657 1.343-3 3-3z" fill="#bfbfbf"/>
   <path d="m54.126 116.73c0 1.657-1.343 3-3 3s-3-1.343-3-3v-3.6h6z" fill="#737373"/>
   <path d="m51.126 116.75c-1.933 0-3.5-1.567-3.5-3.5s1.567-3.5 3.5-3.5 3.5 1.567 3.5 3.5-1.567 3.5-3.5 3.5z" fill="#ededed"/>
   <path d="m51.126 109.75c1.933 0 3.5 1.567 3.5 3.5s-1.567 3.5-3.5 3.5-3.5-1.567-3.5-3.5 1.567-3.5 3.5-3.5zm0 0.5c-1.657 0-3 1.343-3 3s1.343 3 3 3 3-1.343 3-3-1.343-3-3-3z" fill="#737373"/>
   <g id="perf_male_circle">
    <path d="m51 69.75c-4.142 0-7.5-3.358-7.5-7.5s3.358-7.5 7.5-7.5 7.5 3.358 7.5 7.5-3.358 7.5-7.5 7.5z" fill="#bfbfbf"/>
    <path d="m54 65.726c0 1.657-1.343 3-3 3s-3-1.343-3-3v-3.6h6z" fill="#737373"/>
    <path d="m51 65.75c-1.933 0-3.5-1.567-3.5-3.5s1.567-3.5 3.5-3.5 3.5 1.567 3.5 3.5-1.567 3.5-3.5 3.5z" fill="#ededed"/>
    <path d="m51 58.75c1.933 0 3.5 1.567 3.5 3.5s-1.567 3.5-3.5 3.5-3.5-1.567-3.5-3.5 1.567-3.5 3.5-3.5zm0 0.5c-1.657 0-3 1.343-3 3s1.343 3 3 3 3-1.343 3-3-1.343-3-3-3z" fill="#737373"/>
   </g>
   <path d="m51 95.25c-4.142 0-7.5-3.358-7.5-7.5s3.358-7.5 7.5-7.5 7.5 3.358 7.5 7.5-3.358 7.5-7.5 7.5z" fill="#bfbfbf"/>
   <path d="m54 91.226c0 1.657-1.343 3-3 3s-3-1.343-3-3v-3.6h6z" fill="#737373"/>
   <path d="m51 91.25c-1.933 0-3.5-1.567-3.5-3.5s1.567-3.5 3.5-3.5 3.5 1.567 3.5 3.5-1.567 3.5-3.5 3.5z" fill="#ededed"/>
   <path d="m51 84.25c1.933 0 3.5 1.567 3.5 3.5s-1.567 3.5-3.5 3.5-3.5-1.567-3.5-3.5 1.567-3.5 3.5-3.5zm0 0.5c-1.657 0-3 1.343-3 3s1.343 3 3 3 3-1.343 3-3-1.343-3-3-3z" fill="#737373"/>
   <path d="m26 44.25c-4.142 0-7.5-3.358-7.5-7.5s3.358-7.5 7.5-7.5 7.5 3.358 7.5 7.5-3.358 7.5-7.5 7.5z" fill="#bfbfbf"/>
   <path d="m29 40.226c0 1.657-1.343 3-3 3s-3-1.343-3-3v-3.6h6z" fill="#737373"/>
   <path d="m26 40.25c-1.933 0-3.5-1.567-3.5-3.5s1.567-3.5 3.5-3.5 3.5 1.567 3.5 3.5-1.567 3.5-3.5 3.5z" fill="#ededed"/>
   <path d="m26 33.25c1.933 0 3.5 1.567 3.5 3.5s-1.567 3.5-3.5 3.5-3.5-1.567-3.5-3.5 1.567-3.5 3.5-3.5zm0 0.5c-1.657 0-3 1.343-3 3s1.343 3 3 3 3-1.343 3-3-1.343-3-3-3z" fill="#737373"/>
   <path d="m26 69.75c-4.142 0-7.5-3.358-7.5-7.5s3.358-7.5 7.5-7.5 7.5 3.358 7.5 7.5-3.358 7.5-7.5 7.5z" fill="#bfbfbf"/>
   <path d="m29 65.726c0 1.657-1.343 3-3 3s-3-1.343-3-3v-3.6h6z" fill="#737373"/>
   <path d="m26 65.75c-1.933 0-3.5-1.567-3.5-3.5s1.567-3.5 3.5-3.5 3.5 1.567 3.5 3.5-1.567 3.5-3.5 3.5z" fill="#ededed"/>
   <path d="m26 58.75c1.933 0 3.5 1.567 3.5 3.5s-1.567 3.5-3.5 3.5-3.5-1.567-3.5-3.5 1.567-3.5 3.5-3.5zm0 0.5c-1.657 0-3 1.343-3 3s1.343 3 3 3 3-1.343 3-3-1.343-3-3-3z" fill="#737373"/>
   <path d="m26 95.25c-4.142 0-7.5-3.358-7.5-7.5s3.358-7.5 7.5-7.5 7.5 3.358 7.5 7.5-3.358 7.5-7.5 7.5z" fill="#bfbfbf"/>
   <path d="m29 91.226c0 1.657-1.343 3-3 3s-3-1.343-3-3v-3.6h6z" fill="#737373"/>
   <path d="m26 91.25c-1.933 0-3.5-1.567-3.5-3.5s1.567-3.5 3.5-3.5 3.5 1.567 3.5 3.5-1.567 3.5-3.5 3.5z" fill="#ededed"/>
   <path d="m26 84.25c1.933 0 3.5 1.567 3.5 3.5s-1.567 3.5-3.5 3.5-3.5-1.567-3.5-3.5 1.567-3.5 3.5-3.5zm0 0.5c-1.657 0-3 1.343-3 3s1.343 3 3 3 3-1.343 3-3-1.343-3-3-3z" fill="#737373"/>
   <path d="m26 120.75c-4.142 0-7.5-3.358-7.5-7.5s3.358-7.5 7.5-7.5 7.5 3.358 7.5 7.5-3.358 7.5-7.5 7.5z" fill="#bfbfbf"/>
   <path d="m29 116.73c0 1.657-1.343 3-3 3s-3-1.343-3-3v-3.6h6z" fill="#737373"/>
   <path d="m26 116.75c-1.933 0-3.5-1.567-3.5-3.5s1.567-3.5 3.5-3.5 3.5 1.567 3.5 3.5-1.567 3.5-3.5 3.5z" fill="#ededed"/>
   <path d="m26 109.75c1.933 0 3.5 1.567 3.5 3.5s-1.567 3.5-3.5 3.5-3.5-1.567-3.5-3.5 1.567-3.5 3.5-3.5zm0 0.5c-1.657 0-3 1.343-3 3s1.343 3 3 3 3-1.343 3-3-1.343-3-3-3z" fill="#737373"/>
  </g>
  <g id="antenna" fill-opacity="0" stroke="#d3c12b" stroke-width="8">
   <path d="m240.5 15h-80"/>
   <path d="m240.5 11v23"/>
   <path d="m240.5 30h-45"/>
   <path d="m195.5 26v23"/>
   <path d="m240.5 45h-45"/>
   <path d="m240.5 41v23"/>
   <path d="m240.5 60h-45"/>
   <path d="m195.5 56v23"/>
   <path d="m240.5 75h-45"/>
   <path d="m240.5 71v23"/>
   <path d="m240.5 90h-45"/>
   <path d="m195.61 86-0.109 23"/>
   <path d="m240.5 105h-45"/>
   <path d="m240.5 101v39"/>
   <path d="m160.5 11v94"/>
  </g>
  <g id="8pins" fill="#aeaeae">
   <path d="m134.13 25.742h3.5v2.334h-3.5z"/>
   <path d="m134.13 31.142h3.5v2.334h-3.5z"/>
   <path d="m134.13 36.542h3.5v2.334h-3.5z"/>
   <path d="m134.13 41.942h3.5v2.334h-3.5z"/>
   <path d="m134.13 47.342h3.5v2.334h-3.5z"/>
   <path d="m134.13 52.742h3.5v2.334h-3.5z"/>
   <path d="m134.13 58.142h3.5v2.334h-3.5z"/>
   <path d="m134.13 63.742h3.5v2.334h-3.5z"/>
  </g>
  <g fill="#aeaeae">
   <path d="m80.632 25.742h3.5v2.334h-3.5z"/>
   <path d="m80.632 31.142h3.5v2.334h-3.5z"/>
   <path d="m80.632 36.542h3.5v2.334h-3.5z"/>
   <path d="m80.632 41.942h3.5v2.334h-3.5z"/>
   <path d="m80.632 47.342h3.5v2.334h-3.5z"/>
   <path d="m80.632 52.742h3.5v2.334h-3.5z"/>
   <path d="m80.632 58.142h3.5v2.334h-3.5z"/>
   <path d="m80.632 63.742h3.5v2.334h-3.5z"/>
  </g>
  <g fill="#aeaeae">
   <path d="m88.965 74.242v-3.5h2.333v3.5z"/>
   <path d="m94.365 74.242v-3.5h2.333v3.5z"/>
   <path d="m99.765 74.242v-3.5h2.333v3.5z"/>
   <path d="m105.16 74.242v-3.5h2.333v3.5z"/>
   <path d="m110.56 74.242v-3.5h2.333v3.5z"/>
   <path d="m115.96 74.242v-3.5h2.333v3.5z"/>
   <path d="m121.36 74.242v-3.5h2.333v3.5z"/>
   <path d="m126.96 74.242v-3.5h2.333v3.5z"/>
  </g>
  <g fill="#aeaeae">
   <path d="m89.355 20.742v-3.5h2.333v3.5z"/>
   <path d="m94.755 20.742v-3.5h2.333v3.5z"/>
   <path d="m100.16 20.742v-3.5h2.333v3.5z"/>
   <path d="m105.56 20.742v-3.5h2.333v3.5z"/>
   <path d="m110.96 20.742v-3.5h2.333v3.5z"/>
   <path d="m116.36 20.742v-3.5h2.333v3.5z"/>
   <path d="m121.76 20.742v-3.5h2.333v3.5z"/>
   <path d="m127.36 20.742v-3.5h2.333v3.5z"/>
  </g>
  <path d="m84.132 20.742h50v50h-50z" fill="#212121"/>
  <g id="8pin_ci">
   <g id="4_pin" fill="#aeaeae">
    <path d="m71.132 94.5h13v5.5h-13z"/>
    <path d="m71.132 129h13v5.5h-13z"/>
    <path d="m71.132 106h13v5.5h-13z"/>
    <path d="m71.132 117.5h13v5.5h-13z"/>
   </g>
   <g fill="#aeaeae">
    <path d="m134.13 94.5h13v5.5h-13z"/>
    <path d="m134.13 129h13v5.5h-13z"/>
    <path d="m134.13 106h13v5.5h-13z"/>
    <path d="m134.13 117.5h13v5.5h-13z"/>
   </g>
   <path d="m84.132 89.5h50v50h-50z" fill="#212121"/>
  </g>
 </g>
</svg>
