<?xml version="1.0" encoding="UTF-8"?>
<svg width="280" height="321" version="1.1" viewBox="0 0 280 321" xmlns="http://www.w3.org/2000/svg">
 <g id="board" transform="translate(-286.5,-51.5)">
  <path d="m290.44 51.5h272.12c2.175 0 3.939 4.067 3.939 9.085v302.83c0 5.018-1.764 9.085-3.939 9.085h-272.12c-2.175 0-3.939-4.067-3.939-9.085v-302.83c0-5.018 1.764-9.085 3.939-9.085z" fill="#ccc"/>
  <path d="m562.56 51.5c2.175 0 3.939 4.067 3.939 9.085v302.83c0 5.018-1.764 9.085-3.939 9.085h-272.12c-2.175 0-3.939-4.067-3.939-9.085v-302.83c0-5.018 1.764-9.085 3.939-9.085zm0 1h-272.12c-1.395 0-2.939 3.562-2.939 8.085v302.83c0 4.523 1.544 8.085 2.939 8.085h272.12c1.395 0 2.939-3.562 2.939-8.085v-302.83c0-4.523-1.544-8.085-2.939-8.085z" fill="#9f9f9f"/>
  <path d="m301 199h249v26h-249z" fill="#9f9f9f"/>
  <g id="full_row">
   <g id="double_row">
    <g id="perf">
     <path d="m313 94.5c4.142 0 7.5 3.338 7.5 7.457l-3e-3 0.043h-14.994l-3e-3 -0.043c0-4.119 3.358-7.457 7.5-7.457z" fill="#b0b0b0"/>
     <path d="m313 109.5c-4.142 0-7.5-3.338-7.5-7.457l3e-3 -0.043h14.994l3e-3 0.043c0 4.119-3.358 7.457-7.5 7.457z" fill="#ededed"/>
     <path d="m313 107c-2.761 0-5-2.239-5-5s2.239-5 5-5 5 2.239 5 5-2.239 5-5 5z" fill="#2b2b2b"/>
    </g>
    <path d="m313 69.5c4.142 0 7.5 3.338 7.5 7.457l-3e-3 0.043h-14.994l-3e-3 -0.043c0-4.119 3.358-7.457 7.5-7.457z" fill="#b0b0b0"/>
    <path d="m313 84.5c-4.142 0-7.5-3.338-7.5-7.457l3e-3 -0.043h14.994l3e-3 0.043c0 4.119-3.358 7.457-7.5 7.457z" fill="#ededed"/>
    <path d="m313 82c-2.761 0-5-2.239-5-5s2.239-5 5-5 5 2.239 5 5-2.239 5-5 5z" fill="#2b2b2b"/>
    <path d="m338 94.5c4.142 0 7.5 3.338 7.5 7.457l-3e-3 0.043h-14.994l-3e-3 -0.043c0-4.119 3.358-7.457 7.5-7.457z" fill="#b0b0b0"/>
    <path d="m338 109.5c-4.142 0-7.5-3.338-7.5-7.457l3e-3 -0.043h14.994l3e-3 0.043c0 4.119-3.358 7.457-7.5 7.457z" fill="#ededed"/>
    <path d="m338 107c-2.761 0-5-2.239-5-5s2.239-5 5-5 5 2.239 5 5-2.239 5-5 5z" fill="#2b2b2b"/>
    <path d="m338 69.5c4.142 0 7.5 3.338 7.5 7.457l-3e-3 0.043h-14.994l-3e-3 -0.043c0-4.119 3.358-7.457 7.5-7.457z" fill="#b0b0b0"/>
    <path d="m338 84.5c-4.142 0-7.5-3.338-7.5-7.457l3e-3 -0.043h14.994l3e-3 0.043c0 4.119-3.358 7.457-7.5 7.457z" fill="#ededed"/>
    <path d="m338 82c-2.761 0-5-2.239-5-5s2.239-5 5-5 5 2.239 5 5-2.239 5-5 5z" fill="#2b2b2b"/>
    <path d="m363 94.5c4.142 0 7.5 3.338 7.5 7.457l-3e-3 0.043h-14.994l-3e-3 -0.043c0-4.119 3.358-7.457 7.5-7.457z" fill="#b0b0b0"/>
    <path d="m363 109.5c-4.142 0-7.5-3.338-7.5-7.457l3e-3 -0.043h14.994l3e-3 0.043c0 4.119-3.358 7.457-7.5 7.457z" fill="#ededed"/>
    <path d="m363 107c-2.761 0-5-2.239-5-5s2.239-5 5-5 5 2.239 5 5-2.239 5-5 5z" fill="#2b2b2b"/>
    <path d="m363 69.5c4.142 0 7.5 3.338 7.5 7.457l-3e-3 0.043h-14.994l-3e-3 -0.043c0-4.119 3.358-7.457 7.5-7.457z" fill="#b0b0b0"/>
    <path d="m363 84.5c-4.142 0-7.5-3.338-7.5-7.457l3e-3 -0.043h14.994l3e-3 0.043c0 4.119-3.358 7.457-7.5 7.457z" fill="#ededed"/>
    <path d="m363 82c-2.761 0-5-2.239-5-5s2.239-5 5-5 5 2.239 5 5-2.239 5-5 5z" fill="#2b2b2b"/>
    <path d="m388 94.5c4.142 0 7.5 3.338 7.5 7.457l-3e-3 0.043h-14.994l-3e-3 -0.043c0-4.119 3.358-7.457 7.5-7.457z" fill="#b0b0b0"/>
    <path d="m388 109.5c-4.142 0-7.5-3.338-7.5-7.457l3e-3 -0.043h14.994l3e-3 0.043c0 4.119-3.358 7.457-7.5 7.457z" fill="#ededed"/>
    <path d="m388 107c-2.761 0-5-2.239-5-5s2.239-5 5-5 5 2.239 5 5-2.239 5-5 5z" fill="#2b2b2b"/>
    <path d="m388 69.5c4.142 0 7.5 3.338 7.5 7.457l-3e-3 0.043h-14.994l-3e-3 -0.043c0-4.119 3.358-7.457 7.5-7.457z" fill="#b0b0b0"/>
    <path d="m388 84.5c-4.142 0-7.5-3.338-7.5-7.457l3e-3 -0.043h14.994l3e-3 0.043c0 4.119-3.358 7.457-7.5 7.457z" fill="#ededed"/>
    <path d="m388 82c-2.761 0-5-2.239-5-5s2.239-5 5-5 5 2.239 5 5-2.239 5-5 5z" fill="#2b2b2b"/>
    <path d="m413 94.5c4.142 0 7.5 3.338 7.5 7.457l-3e-3 0.043h-14.994l-3e-3 -0.043c0-4.119 3.358-7.457 7.5-7.457z" fill="#b0b0b0"/>
    <path d="m413 109.5c-4.142 0-7.5-3.338-7.5-7.457l3e-3 -0.043h14.994l3e-3 0.043c0 4.119-3.358 7.457-7.5 7.457z" fill="#ededed"/>
    <path d="m413 107c-2.761 0-5-2.239-5-5s2.239-5 5-5 5 2.239 5 5-2.239 5-5 5z" fill="#2b2b2b"/>
    <path d="m413 69.5c4.142 0 7.5 3.338 7.5 7.457l-3e-3 0.043h-14.994l-3e-3 -0.043c0-4.119 3.358-7.457 7.5-7.457z" fill="#b0b0b0"/>
    <path d="m413 84.5c-4.142 0-7.5-3.338-7.5-7.457l3e-3 -0.043h14.994l3e-3 0.043c0 4.119-3.358 7.457-7.5 7.457z" fill="#ededed"/>
    <path d="m413 82c-2.761 0-5-2.239-5-5s2.239-5 5-5 5 2.239 5 5-2.239 5-5 5z" fill="#2b2b2b"/>
   </g>
   <path d="m313 144.5c4.142 0 7.5 3.338 7.5 7.457l-3e-3 0.043h-14.994l-3e-3 -0.043c0-4.119 3.358-7.457 7.5-7.457z" fill="#b0b0b0"/>
   <path d="m313 159.5c-4.142 0-7.5-3.338-7.5-7.457l3e-3 -0.043h14.994l3e-3 0.043c0 4.119-3.358 7.457-7.5 7.457z" fill="#ededed"/>
   <path d="m313 157c-2.761 0-5-2.239-5-5s2.239-5 5-5 5 2.239 5 5-2.239 5-5 5z" fill="#2b2b2b"/>
   <path d="m313 119.5c4.142 0 7.5 3.338 7.5 7.457l-3e-3 0.043h-14.994l-3e-3 -0.043c0-4.119 3.358-7.457 7.5-7.457z" fill="#b0b0b0"/>
   <path d="m313 134.5c-4.142 0-7.5-3.338-7.5-7.457l3e-3 -0.043h14.994l3e-3 0.043c0 4.119-3.358 7.457-7.5 7.457z" fill="#ededed"/>
   <path d="m313 132c-2.761 0-5-2.239-5-5s2.239-5 5-5 5 2.239 5 5-2.239 5-5 5z" fill="#2b2b2b"/>
   <path d="m338 144.5c4.142 0 7.5 3.338 7.5 7.457l-3e-3 0.043h-14.994l-3e-3 -0.043c0-4.119 3.358-7.457 7.5-7.457z" fill="#b0b0b0"/>
   <path d="m338 159.5c-4.142 0-7.5-3.338-7.5-7.457l3e-3 -0.043h14.994l3e-3 0.043c0 4.119-3.358 7.457-7.5 7.457z" fill="#ededed"/>
   <path d="m338 157c-2.761 0-5-2.239-5-5s2.239-5 5-5 5 2.239 5 5-2.239 5-5 5z" fill="#2b2b2b"/>
   <path d="m338 119.5c4.142 0 7.5 3.338 7.5 7.457l-3e-3 0.043h-14.994l-3e-3 -0.043c0-4.119 3.358-7.457 7.5-7.457z" fill="#b0b0b0"/>
   <path d="m338 134.5c-4.142 0-7.5-3.338-7.5-7.457l3e-3 -0.043h14.994l3e-3 0.043c0 4.119-3.358 7.457-7.5 7.457z" fill="#ededed"/>
   <path d="m338 132c-2.761 0-5-2.239-5-5s2.239-5 5-5 5 2.239 5 5-2.239 5-5 5z" fill="#2b2b2b"/>
   <path d="m363 144.5c4.142 0 7.5 3.338 7.5 7.457l-3e-3 0.043h-14.994l-3e-3 -0.043c0-4.119 3.358-7.457 7.5-7.457z" fill="#b0b0b0"/>
   <path d="m363 159.5c-4.142 0-7.5-3.338-7.5-7.457l3e-3 -0.043h14.994l3e-3 0.043c0 4.119-3.358 7.457-7.5 7.457z" fill="#ededed"/>
   <path d="m363 157c-2.761 0-5-2.239-5-5s2.239-5 5-5 5 2.239 5 5-2.239 5-5 5z" fill="#2b2b2b"/>
   <path d="m363 119.5c4.142 0 7.5 3.338 7.5 7.457l-3e-3 0.043h-14.994l-3e-3 -0.043c0-4.119 3.358-7.457 7.5-7.457z" fill="#b0b0b0"/>
   <path d="m363 134.5c-4.142 0-7.5-3.338-7.5-7.457l3e-3 -0.043h14.994l3e-3 0.043c0 4.119-3.358 7.457-7.5 7.457z" fill="#ededed"/>
   <path d="m363 132c-2.761 0-5-2.239-5-5s2.239-5 5-5 5 2.239 5 5-2.239 5-5 5z" fill="#2b2b2b"/>
   <path d="m388 144.5c4.142 0 7.5 3.338 7.5 7.457l-3e-3 0.043h-14.994l-3e-3 -0.043c0-4.119 3.358-7.457 7.5-7.457z" fill="#b0b0b0"/>
   <path d="m388 159.5c-4.142 0-7.5-3.338-7.5-7.457l3e-3 -0.043h14.994l3e-3 0.043c0 4.119-3.358 7.457-7.5 7.457z" fill="#ededed"/>
   <path d="m388 157c-2.761 0-5-2.239-5-5s2.239-5 5-5 5 2.239 5 5-2.239 5-5 5z" fill="#2b2b2b"/>
   <path d="m388 119.5c4.142 0 7.5 3.338 7.5 7.457l-3e-3 0.043h-14.994l-3e-3 -0.043c0-4.119 3.358-7.457 7.5-7.457z" fill="#b0b0b0"/>
   <path d="m388 134.5c-4.142 0-7.5-3.338-7.5-7.457l3e-3 -0.043h14.994l3e-3 0.043c0 4.119-3.358 7.457-7.5 7.457z" fill="#ededed"/>
   <path d="m388 132c-2.761 0-5-2.239-5-5s2.239-5 5-5 5 2.239 5 5-2.239 5-5 5z" fill="#2b2b2b"/>
   <path d="m413 144.5c4.142 0 7.5 3.338 7.5 7.457l-3e-3 0.043h-14.994l-3e-3 -0.043c0-4.119 3.358-7.457 7.5-7.457z" fill="#b0b0b0"/>
   <path d="m413 159.5c-4.142 0-7.5-3.338-7.5-7.457l3e-3 -0.043h14.994l3e-3 0.043c0 4.119-3.358 7.457-7.5 7.457z" fill="#ededed"/>
   <path d="m413 157c-2.761 0-5-2.239-5-5s2.239-5 5-5 5 2.239 5 5-2.239 5-5 5z" fill="#2b2b2b"/>
   <path d="m413 119.5c4.142 0 7.5 3.338 7.5 7.457l-3e-3 0.043h-14.994l-3e-3 -0.043c0-4.119 3.358-7.457 7.5-7.457z" fill="#b0b0b0"/>
   <path d="m413 134.5c-4.142 0-7.5-3.338-7.5-7.457l3e-3 -0.043h14.994l3e-3 0.043c0 4.119-3.358 7.457-7.5 7.457z" fill="#ededed"/>
   <path d="m413 132c-2.761 0-5-2.239-5-5s2.239-5 5-5 5 2.239 5 5-2.239 5-5 5z" fill="#2b2b2b"/>
   <g id="Single_row">
    <path d="m313 169.5c4.142 0 7.5 3.338 7.5 7.457l-3e-3 0.043h-14.994l-3e-3 -0.043c0-4.119 3.358-7.457 7.5-7.457z" fill="#b0b0b0"/>
    <path d="m313 184.5c-4.142 0-7.5-3.338-7.5-7.457l3e-3 -0.043h14.994l3e-3 0.043c0 4.119-3.358 7.457-7.5 7.457z" fill="#ededed"/>
    <path d="m313 182c-2.761 0-5-2.239-5-5s2.239-5 5-5 5 2.239 5 5-2.239 5-5 5z" fill="#2b2b2b"/>
    <path d="m338 169.5c4.142 0 7.5 3.338 7.5 7.457l-3e-3 0.043h-14.994l-3e-3 -0.043c0-4.119 3.358-7.457 7.5-7.457z" fill="#b0b0b0"/>
    <path d="m338 184.5c-4.142 0-7.5-3.338-7.5-7.457l3e-3 -0.043h14.994l3e-3 0.043c0 4.119-3.358 7.457-7.5 7.457z" fill="#ededed"/>
    <path d="m338 182c-2.761 0-5-2.239-5-5s2.239-5 5-5 5 2.239 5 5-2.239 5-5 5z" fill="#2b2b2b"/>
    <path d="m363 169.5c4.142 0 7.5 3.338 7.5 7.457l-3e-3 0.043h-14.994l-3e-3 -0.043c0-4.119 3.358-7.457 7.5-7.457z" fill="#b0b0b0"/>
    <path d="m363 184.5c-4.142 0-7.5-3.338-7.5-7.457l3e-3 -0.043h14.994l3e-3 0.043c0 4.119-3.358 7.457-7.5 7.457z" fill="#ededed"/>
    <path d="m363 182c-2.761 0-5-2.239-5-5s2.239-5 5-5 5 2.239 5 5-2.239 5-5 5z" fill="#2b2b2b"/>
    <path d="m388 169.5c4.142 0 7.5 3.338 7.5 7.457l-3e-3 0.043h-14.994l-3e-3 -0.043c0-4.119 3.358-7.457 7.5-7.457z" fill="#b0b0b0"/>
    <path d="m388 184.5c-4.142 0-7.5-3.338-7.5-7.457l3e-3 -0.043h14.994l3e-3 0.043c0 4.119-3.358 7.457-7.5 7.457z" fill="#ededed"/>
    <path d="m388 182c-2.761 0-5-2.239-5-5s2.239-5 5-5 5 2.239 5 5-2.239 5-5 5z" fill="#2b2b2b"/>
    <path d="m413 169.5c4.142 0 7.5 3.338 7.5 7.457l-3e-3 0.043h-14.994l-3e-3 -0.043c0-4.119 3.358-7.457 7.5-7.457z" fill="#b0b0b0"/>
    <path d="m413 184.5c-4.142 0-7.5-3.338-7.5-7.457l3e-3 -0.043h14.994l3e-3 0.043c0 4.119-3.358 7.457-7.5 7.457z" fill="#ededed"/>
    <path d="m413 182c-2.761 0-5-2.239-5-5s2.239-5 5-5 5 2.239 5 5-2.239 5-5 5z" fill="#2b2b2b"/>
   </g>
   <path d="m438 94.5c4.142 0 7.5 3.338 7.5 7.457l-3e-3 0.043h-14.994l-3e-3 -0.043c0-4.119 3.358-7.457 7.5-7.457z" fill="#b0b0b0"/>
   <path d="m438 109.5c-4.142 0-7.5-3.338-7.5-7.457l3e-3 -0.043h14.994l3e-3 0.043c0 4.119-3.358 7.457-7.5 7.457z" fill="#ededed"/>
   <path d="m438 107c-2.761 0-5-2.239-5-5s2.239-5 5-5 5 2.239 5 5-2.239 5-5 5z" fill="#2b2b2b"/>
   <path d="m438 69.5c4.142 0 7.5 3.338 7.5 7.457l-3e-3 0.043h-14.994l-3e-3 -0.043c0-4.119 3.358-7.457 7.5-7.457z" fill="#b0b0b0"/>
   <path d="m438 84.5c-4.142 0-7.5-3.338-7.5-7.457l3e-3 -0.043h14.994l3e-3 0.043c0 4.119-3.358 7.457-7.5 7.457z" fill="#ededed"/>
   <path d="m438 82c-2.761 0-5-2.239-5-5s2.239-5 5-5 5 2.239 5 5-2.239 5-5 5z" fill="#2b2b2b"/>
   <path d="m463 94.5c4.142 0 7.5 3.338 7.5 7.457l-3e-3 0.043h-14.994l-3e-3 -0.043c0-4.119 3.358-7.457 7.5-7.457z" fill="#b0b0b0"/>
   <path d="m463 109.5c-4.142 0-7.5-3.338-7.5-7.457l3e-3 -0.043h14.994l3e-3 0.043c0 4.119-3.358 7.457-7.5 7.457z" fill="#ededed"/>
   <path d="m463 107c-2.761 0-5-2.239-5-5s2.239-5 5-5 5 2.239 5 5-2.239 5-5 5z" fill="#2b2b2b"/>
   <path d="m463 69.5c4.142 0 7.5 3.338 7.5 7.457l-3e-3 0.043h-14.994l-3e-3 -0.043c0-4.119 3.358-7.457 7.5-7.457z" fill="#b0b0b0"/>
   <path d="m463 84.5c-4.142 0-7.5-3.338-7.5-7.457l3e-3 -0.043h14.994l3e-3 0.043c0 4.119-3.358 7.457-7.5 7.457z" fill="#ededed"/>
   <path d="m463 82c-2.761 0-5-2.239-5-5s2.239-5 5-5 5 2.239 5 5-2.239 5-5 5z" fill="#2b2b2b"/>
   <path d="m488 94.5c4.142 0 7.5 3.338 7.5 7.457l-3e-3 0.043h-14.994l-3e-3 -0.043c0-4.119 3.358-7.457 7.5-7.457z" fill="#b0b0b0"/>
   <path d="m488 109.5c-4.142 0-7.5-3.338-7.5-7.457l3e-3 -0.043h14.994l3e-3 0.043c0 4.119-3.358 7.457-7.5 7.457z" fill="#ededed"/>
   <path d="m488 107c-2.761 0-5-2.239-5-5s2.239-5 5-5 5 2.239 5 5-2.239 5-5 5z" fill="#2b2b2b"/>
   <path d="m488 69.5c4.142 0 7.5 3.338 7.5 7.457l-3e-3 0.043h-14.994l-3e-3 -0.043c0-4.119 3.358-7.457 7.5-7.457z" fill="#b0b0b0"/>
   <path d="m488 84.5c-4.142 0-7.5-3.338-7.5-7.457l3e-3 -0.043h14.994l3e-3 0.043c0 4.119-3.358 7.457-7.5 7.457z" fill="#ededed"/>
   <path d="m488 82c-2.761 0-5-2.239-5-5s2.239-5 5-5 5 2.239 5 5-2.239 5-5 5z" fill="#2b2b2b"/>
   <path d="m513 94.5c4.142 0 7.5 3.338 7.5 7.457l-3e-3 0.043h-14.994l-3e-3 -0.043c0-4.119 3.358-7.457 7.5-7.457z" fill="#b0b0b0"/>
   <path d="m513 109.5c-4.142 0-7.5-3.338-7.5-7.457l3e-3 -0.043h14.994l3e-3 0.043c0 4.119-3.358 7.457-7.5 7.457z" fill="#ededed"/>
   <path d="m513 107c-2.761 0-5-2.239-5-5s2.239-5 5-5 5 2.239 5 5-2.239 5-5 5z" fill="#2b2b2b"/>
   <path d="m513 69.5c4.142 0 7.5 3.338 7.5 7.457l-3e-3 0.043h-14.994l-3e-3 -0.043c0-4.119 3.358-7.457 7.5-7.457z" fill="#b0b0b0"/>
   <path d="m513 84.5c-4.142 0-7.5-3.338-7.5-7.457l3e-3 -0.043h14.994l3e-3 0.043c0 4.119-3.358 7.457-7.5 7.457z" fill="#ededed"/>
   <path d="m513 82c-2.761 0-5-2.239-5-5s2.239-5 5-5 5 2.239 5 5-2.239 5-5 5z" fill="#2b2b2b"/>
   <path d="m538 94.5c4.142 0 7.5 3.338 7.5 7.457l-3e-3 0.043h-14.994l-3e-3 -0.043c0-4.119 3.358-7.457 7.5-7.457z" fill="#b0b0b0"/>
   <path d="m538 109.5c-4.142 0-7.5-3.338-7.5-7.457l3e-3 -0.043h14.994l3e-3 0.043c0 4.119-3.358 7.457-7.5 7.457z" fill="#ededed"/>
   <path d="m538 107c-2.761 0-5-2.239-5-5s2.239-5 5-5 5 2.239 5 5-2.239 5-5 5z" fill="#2b2b2b"/>
   <path d="m538 69.5c4.142 0 7.5 3.338 7.5 7.457l-3e-3 0.043h-14.994l-3e-3 -0.043c0-4.119 3.358-7.457 7.5-7.457z" fill="#b0b0b0"/>
   <path d="m538 84.5c-4.142 0-7.5-3.338-7.5-7.457l3e-3 -0.043h14.994l3e-3 0.043c0 4.119-3.358 7.457-7.5 7.457z" fill="#ededed"/>
   <path d="m538 82c-2.761 0-5-2.239-5-5s2.239-5 5-5 5 2.239 5 5-2.239 5-5 5z" fill="#2b2b2b"/>
   <path d="m438 144.5c4.142 0 7.5 3.338 7.5 7.457l-3e-3 0.043h-14.994l-3e-3 -0.043c0-4.119 3.358-7.457 7.5-7.457z" fill="#b0b0b0"/>
   <path d="m438 159.5c-4.142 0-7.5-3.338-7.5-7.457l3e-3 -0.043h14.994l3e-3 0.043c0 4.119-3.358 7.457-7.5 7.457z" fill="#ededed"/>
   <path d="m438 157c-2.761 0-5-2.239-5-5s2.239-5 5-5 5 2.239 5 5-2.239 5-5 5z" fill="#2b2b2b"/>
   <path d="m438 119.5c4.142 0 7.5 3.338 7.5 7.457l-3e-3 0.043h-14.994l-3e-3 -0.043c0-4.119 3.358-7.457 7.5-7.457z" fill="#b0b0b0"/>
   <path d="m438 134.5c-4.142 0-7.5-3.338-7.5-7.457l3e-3 -0.043h14.994l3e-3 0.043c0 4.119-3.358 7.457-7.5 7.457z" fill="#ededed"/>
   <path d="m438 132c-2.761 0-5-2.239-5-5s2.239-5 5-5 5 2.239 5 5-2.239 5-5 5z" fill="#2b2b2b"/>
   <path d="m463 144.5c4.142 0 7.5 3.338 7.5 7.457l-3e-3 0.043h-14.994l-3e-3 -0.043c0-4.119 3.358-7.457 7.5-7.457z" fill="#b0b0b0"/>
   <path d="m463 159.5c-4.142 0-7.5-3.338-7.5-7.457l3e-3 -0.043h14.994l3e-3 0.043c0 4.119-3.358 7.457-7.5 7.457z" fill="#ededed"/>
   <path d="m463 157c-2.761 0-5-2.239-5-5s2.239-5 5-5 5 2.239 5 5-2.239 5-5 5z" fill="#2b2b2b"/>
   <path d="m463 119.5c4.142 0 7.5 3.338 7.5 7.457l-3e-3 0.043h-14.994l-3e-3 -0.043c0-4.119 3.358-7.457 7.5-7.457z" fill="#b0b0b0"/>
   <path d="m463 134.5c-4.142 0-7.5-3.338-7.5-7.457l3e-3 -0.043h14.994l3e-3 0.043c0 4.119-3.358 7.457-7.5 7.457z" fill="#ededed"/>
   <path d="m463 132c-2.761 0-5-2.239-5-5s2.239-5 5-5 5 2.239 5 5-2.239 5-5 5z" fill="#2b2b2b"/>
   <path d="m488 144.5c4.142 0 7.5 3.338 7.5 7.457l-3e-3 0.043h-14.994l-3e-3 -0.043c0-4.119 3.358-7.457 7.5-7.457z" fill="#b0b0b0"/>
   <path d="m488 159.5c-4.142 0-7.5-3.338-7.5-7.457l3e-3 -0.043h14.994l3e-3 0.043c0 4.119-3.358 7.457-7.5 7.457z" fill="#ededed"/>
   <path d="m488 157c-2.761 0-5-2.239-5-5s2.239-5 5-5 5 2.239 5 5-2.239 5-5 5z" fill="#2b2b2b"/>
   <path d="m488 119.5c4.142 0 7.5 3.338 7.5 7.457l-3e-3 0.043h-14.994l-3e-3 -0.043c0-4.119 3.358-7.457 7.5-7.457z" fill="#b0b0b0"/>
   <path d="m488 134.5c-4.142 0-7.5-3.338-7.5-7.457l3e-3 -0.043h14.994l3e-3 0.043c0 4.119-3.358 7.457-7.5 7.457z" fill="#ededed"/>
   <path d="m488 132c-2.761 0-5-2.239-5-5s2.239-5 5-5 5 2.239 5 5-2.239 5-5 5z" fill="#2b2b2b"/>
   <path d="m513 144.5c4.142 0 7.5 3.338 7.5 7.457l-3e-3 0.043h-14.994l-3e-3 -0.043c0-4.119 3.358-7.457 7.5-7.457z" fill="#b0b0b0"/>
   <path d="m513 159.5c-4.142 0-7.5-3.338-7.5-7.457l3e-3 -0.043h14.994l3e-3 0.043c0 4.119-3.358 7.457-7.5 7.457z" fill="#ededed"/>
   <path d="m513 157c-2.761 0-5-2.239-5-5s2.239-5 5-5 5 2.239 5 5-2.239 5-5 5z" fill="#2b2b2b"/>
   <path d="m513 119.5c4.142 0 7.5 3.338 7.5 7.457l-3e-3 0.043h-14.994l-3e-3 -0.043c0-4.119 3.358-7.457 7.5-7.457z" fill="#b0b0b0"/>
   <path d="m513 134.5c-4.142 0-7.5-3.338-7.5-7.457l3e-3 -0.043h14.994l3e-3 0.043c0 4.119-3.358 7.457-7.5 7.457z" fill="#ededed"/>
   <path d="m513 132c-2.761 0-5-2.239-5-5s2.239-5 5-5 5 2.239 5 5-2.239 5-5 5z" fill="#2b2b2b"/>
   <path d="m538 144.5c4.142 0 7.5 3.338 7.5 7.457l-3e-3 0.043h-14.994l-3e-3 -0.043c0-4.119 3.358-7.457 7.5-7.457z" fill="#b0b0b0"/>
   <path d="m538 159.5c-4.142 0-7.5-3.338-7.5-7.457l3e-3 -0.043h14.994l3e-3 0.043c0 4.119-3.358 7.457-7.5 7.457z" fill="#ededed"/>
   <path d="m538 157c-2.761 0-5-2.239-5-5s2.239-5 5-5 5 2.239 5 5-2.239 5-5 5z" fill="#2b2b2b"/>
   <path d="m538 119.5c4.142 0 7.5 3.338 7.5 7.457l-3e-3 0.043h-14.994l-3e-3 -0.043c0-4.119 3.358-7.457 7.5-7.457z" fill="#b0b0b0"/>
   <path d="m538 134.5c-4.142 0-7.5-3.338-7.5-7.457l3e-3 -0.043h14.994l3e-3 0.043c0 4.119-3.358 7.457-7.5 7.457z" fill="#ededed"/>
   <path d="m538 132c-2.761 0-5-2.239-5-5s2.239-5 5-5 5 2.239 5 5-2.239 5-5 5z" fill="#2b2b2b"/>
   <path d="m438 169.5c4.142 0 7.5 3.338 7.5 7.457l-3e-3 0.043h-14.994l-3e-3 -0.043c0-4.119 3.358-7.457 7.5-7.457z" fill="#b0b0b0"/>
   <path d="m438 184.5c-4.142 0-7.5-3.338-7.5-7.457l3e-3 -0.043h14.994l3e-3 0.043c0 4.119-3.358 7.457-7.5 7.457z" fill="#ededed"/>
   <path d="m438 182c-2.761 0-5-2.239-5-5s2.239-5 5-5 5 2.239 5 5-2.239 5-5 5z" fill="#2b2b2b"/>
   <path d="m463 169.5c4.142 0 7.5 3.338 7.5 7.457l-3e-3 0.043h-14.994l-3e-3 -0.043c0-4.119 3.358-7.457 7.5-7.457z" fill="#b0b0b0"/>
   <path d="m463 184.5c-4.142 0-7.5-3.338-7.5-7.457l3e-3 -0.043h14.994l3e-3 0.043c0 4.119-3.358 7.457-7.5 7.457z" fill="#ededed"/>
   <path d="m463 182c-2.761 0-5-2.239-5-5s2.239-5 5-5 5 2.239 5 5-2.239 5-5 5z" fill="#2b2b2b"/>
   <path d="m488 169.5c4.142 0 7.5 3.338 7.5 7.457l-3e-3 0.043h-14.994l-3e-3 -0.043c0-4.119 3.358-7.457 7.5-7.457z" fill="#b0b0b0"/>
   <path d="m488 184.5c-4.142 0-7.5-3.338-7.5-7.457l3e-3 -0.043h14.994l3e-3 0.043c0 4.119-3.358 7.457-7.5 7.457z" fill="#ededed"/>
   <path d="m488 182c-2.761 0-5-2.239-5-5s2.239-5 5-5 5 2.239 5 5-2.239 5-5 5z" fill="#2b2b2b"/>
   <path d="m513 169.5c4.142 0 7.5 3.338 7.5 7.457l-3e-3 0.043h-14.994l-3e-3 -0.043c0-4.119 3.358-7.457 7.5-7.457z" fill="#b0b0b0"/>
   <path d="m513 184.5c-4.142 0-7.5-3.338-7.5-7.457l3e-3 -0.043h14.994l3e-3 0.043c0 4.119-3.358 7.457-7.5 7.457z" fill="#ededed"/>
   <path d="m513 182c-2.761 0-5-2.239-5-5s2.239-5 5-5 5 2.239 5 5-2.239 5-5 5z" fill="#2b2b2b"/>
   <path d="m538 169.5c4.142 0 7.5 3.338 7.5 7.457l-3e-3 0.043h-14.994l-3e-3 -0.043c0-4.119 3.358-7.457 7.5-7.457z" fill="#b0b0b0"/>
   <path d="m538 184.5c-4.142 0-7.5-3.338-7.5-7.457l3e-3 -0.043h14.994l3e-3 0.043c0 4.119-3.358 7.457-7.5 7.457z" fill="#ededed"/>
   <path d="m538 182c-2.761 0-5-2.239-5-5s2.239-5 5-5 5 2.239 5 5-2.239 5-5 5z" fill="#2b2b2b"/>
  </g>
  <path d="m313 265.5c4.142 0 7.5 3.338 7.5 7.457l-3e-3 0.043h-14.994l-3e-3 -0.043c0-4.119 3.358-7.457 7.5-7.457z" fill="#b0b0b0"/>
  <path d="m313 280.5c-4.142 0-7.5-3.338-7.5-7.457l3e-3 -0.043h14.994l3e-3 0.043c0 4.119-3.358 7.457-7.5 7.457z" fill="#ededed"/>
  <path d="m313 278c-2.761 0-5-2.239-5-5s2.239-5 5-5 5 2.239 5 5-2.239 5-5 5z" fill="#2b2b2b"/>
  <path d="m313 240.5c4.142 0 7.5 3.338 7.5 7.457l-3e-3 0.043h-14.994l-3e-3 -0.043c0-4.119 3.358-7.457 7.5-7.457z" fill="#b0b0b0"/>
  <path d="m313 255.5c-4.142 0-7.5-3.338-7.5-7.457l3e-3 -0.043h14.994l3e-3 0.043c0 4.119-3.358 7.457-7.5 7.457z" fill="#ededed"/>
  <path d="m313 253c-2.761 0-5-2.239-5-5s2.239-5 5-5 5 2.239 5 5-2.239 5-5 5z" fill="#2b2b2b"/>
  <path d="m338 265.5c4.142 0 7.5 3.338 7.5 7.457l-3e-3 0.043h-14.994l-3e-3 -0.043c0-4.119 3.358-7.457 7.5-7.457z" fill="#b0b0b0"/>
  <path d="m338 280.5c-4.142 0-7.5-3.338-7.5-7.457l3e-3 -0.043h14.994l3e-3 0.043c0 4.119-3.358 7.457-7.5 7.457z" fill="#ededed"/>
  <path d="m338 278c-2.761 0-5-2.239-5-5s2.239-5 5-5 5 2.239 5 5-2.239 5-5 5z" fill="#2b2b2b"/>
  <path d="m338 240.5c4.142 0 7.5 3.338 7.5 7.457l-3e-3 0.043h-14.994l-3e-3 -0.043c0-4.119 3.358-7.457 7.5-7.457z" fill="#b0b0b0"/>
  <path d="m338 255.5c-4.142 0-7.5-3.338-7.5-7.457l3e-3 -0.043h14.994l3e-3 0.043c0 4.119-3.358 7.457-7.5 7.457z" fill="#ededed"/>
  <path d="m338 253c-2.761 0-5-2.239-5-5s2.239-5 5-5 5 2.239 5 5-2.239 5-5 5z" fill="#2b2b2b"/>
  <path d="m363 265.5c4.142 0 7.5 3.338 7.5 7.457l-3e-3 0.043h-14.994l-3e-3 -0.043c0-4.119 3.358-7.457 7.5-7.457z" fill="#b0b0b0"/>
  <path d="m363 280.5c-4.142 0-7.5-3.338-7.5-7.457l3e-3 -0.043h14.994l3e-3 0.043c0 4.119-3.358 7.457-7.5 7.457z" fill="#ededed"/>
  <path d="m363 278c-2.761 0-5-2.239-5-5s2.239-5 5-5 5 2.239 5 5-2.239 5-5 5z" fill="#2b2b2b"/>
  <path d="m363 240.5c4.142 0 7.5 3.338 7.5 7.457l-3e-3 0.043h-14.994l-3e-3 -0.043c0-4.119 3.358-7.457 7.5-7.457z" fill="#b0b0b0"/>
  <path d="m363 255.5c-4.142 0-7.5-3.338-7.5-7.457l3e-3 -0.043h14.994l3e-3 0.043c0 4.119-3.358 7.457-7.5 7.457z" fill="#ededed"/>
  <path d="m363 253c-2.761 0-5-2.239-5-5s2.239-5 5-5 5 2.239 5 5-2.239 5-5 5z" fill="#2b2b2b"/>
  <path d="m388 265.5c4.142 0 7.5 3.338 7.5 7.457l-3e-3 0.043h-14.994l-3e-3 -0.043c0-4.119 3.358-7.457 7.5-7.457z" fill="#b0b0b0"/>
  <path d="m388 280.5c-4.142 0-7.5-3.338-7.5-7.457l3e-3 -0.043h14.994l3e-3 0.043c0 4.119-3.358 7.457-7.5 7.457z" fill="#ededed"/>
  <path d="m388 278c-2.761 0-5-2.239-5-5s2.239-5 5-5 5 2.239 5 5-2.239 5-5 5z" fill="#2b2b2b"/>
  <path d="m388 240.5c4.142 0 7.5 3.338 7.5 7.457l-3e-3 0.043h-14.994l-3e-3 -0.043c0-4.119 3.358-7.457 7.5-7.457z" fill="#b0b0b0"/>
  <path d="m388 255.5c-4.142 0-7.5-3.338-7.5-7.457l3e-3 -0.043h14.994l3e-3 0.043c0 4.119-3.358 7.457-7.5 7.457z" fill="#ededed"/>
  <path d="m388 253c-2.761 0-5-2.239-5-5s2.239-5 5-5 5 2.239 5 5-2.239 5-5 5z" fill="#2b2b2b"/>
  <path d="m413 265.5c4.142 0 7.5 3.338 7.5 7.457l-3e-3 0.043h-14.994l-3e-3 -0.043c0-4.119 3.358-7.457 7.5-7.457z" fill="#b0b0b0"/>
  <path d="m413 280.5c-4.142 0-7.5-3.338-7.5-7.457l3e-3 -0.043h14.994l3e-3 0.043c0 4.119-3.358 7.457-7.5 7.457z" fill="#ededed"/>
  <path d="m413 278c-2.761 0-5-2.239-5-5s2.239-5 5-5 5 2.239 5 5-2.239 5-5 5z" fill="#2b2b2b"/>
  <path d="m413 240.5c4.142 0 7.5 3.338 7.5 7.457l-3e-3 0.043h-14.994l-3e-3 -0.043c0-4.119 3.358-7.457 7.5-7.457z" fill="#b0b0b0"/>
  <path d="m413 255.5c-4.142 0-7.5-3.338-7.5-7.457l3e-3 -0.043h14.994l3e-3 0.043c0 4.119-3.358 7.457-7.5 7.457z" fill="#ededed"/>
  <path d="m413 253c-2.761 0-5-2.239-5-5s2.239-5 5-5 5 2.239 5 5-2.239 5-5 5z" fill="#2b2b2b"/>
  <path d="m313 315.5c4.142 0 7.5 3.338 7.5 7.457l-3e-3 0.043h-14.994l-3e-3 -0.043c0-4.119 3.358-7.457 7.5-7.457z" fill="#b0b0b0"/>
  <path d="m313 330.5c-4.142 0-7.5-3.338-7.5-7.457l3e-3 -0.043h14.994l3e-3 0.043c0 4.119-3.358 7.457-7.5 7.457z" fill="#ededed"/>
  <path d="m313 328c-2.761 0-5-2.239-5-5s2.239-5 5-5 5 2.239 5 5-2.239 5-5 5z" fill="#2b2b2b"/>
  <path d="m313 290.5c4.142 0 7.5 3.338 7.5 7.457l-3e-3 0.043h-14.994l-3e-3 -0.043c0-4.119 3.358-7.457 7.5-7.457z" fill="#b0b0b0"/>
  <path d="m313 305.5c-4.142 0-7.5-3.338-7.5-7.457l3e-3 -0.043h14.994l3e-3 0.043c0 4.119-3.358 7.457-7.5 7.457z" fill="#ededed"/>
  <path d="m313 303c-2.761 0-5-2.239-5-5s2.239-5 5-5 5 2.239 5 5-2.239 5-5 5z" fill="#2b2b2b"/>
  <path d="m338 315.5c4.142 0 7.5 3.338 7.5 7.457l-3e-3 0.043h-14.994l-3e-3 -0.043c0-4.119 3.358-7.457 7.5-7.457z" fill="#b0b0b0"/>
  <path d="m338 330.5c-4.142 0-7.5-3.338-7.5-7.457l3e-3 -0.043h14.994l3e-3 0.043c0 4.119-3.358 7.457-7.5 7.457z" fill="#ededed"/>
  <path d="m338 328c-2.761 0-5-2.239-5-5s2.239-5 5-5 5 2.239 5 5-2.239 5-5 5z" fill="#2b2b2b"/>
  <path d="m338 290.5c4.142 0 7.5 3.338 7.5 7.457l-3e-3 0.043h-14.994l-3e-3 -0.043c0-4.119 3.358-7.457 7.5-7.457z" fill="#b0b0b0"/>
  <path d="m338 305.5c-4.142 0-7.5-3.338-7.5-7.457l3e-3 -0.043h14.994l3e-3 0.043c0 4.119-3.358 7.457-7.5 7.457z" fill="#ededed"/>
  <path d="m338 303c-2.761 0-5-2.239-5-5s2.239-5 5-5 5 2.239 5 5-2.239 5-5 5z" fill="#2b2b2b"/>
  <path d="m363 315.5c4.142 0 7.5 3.338 7.5 7.457l-3e-3 0.043h-14.994l-3e-3 -0.043c0-4.119 3.358-7.457 7.5-7.457z" fill="#b0b0b0"/>
  <path d="m363 330.5c-4.142 0-7.5-3.338-7.5-7.457l3e-3 -0.043h14.994l3e-3 0.043c0 4.119-3.358 7.457-7.5 7.457z" fill="#ededed"/>
  <path d="m363 328c-2.761 0-5-2.239-5-5s2.239-5 5-5 5 2.239 5 5-2.239 5-5 5z" fill="#2b2b2b"/>
  <path d="m363 290.5c4.142 0 7.5 3.338 7.5 7.457l-3e-3 0.043h-14.994l-3e-3 -0.043c0-4.119 3.358-7.457 7.5-7.457z" fill="#b0b0b0"/>
  <path d="m363 305.5c-4.142 0-7.5-3.338-7.5-7.457l3e-3 -0.043h14.994l3e-3 0.043c0 4.119-3.358 7.457-7.5 7.457z" fill="#ededed"/>
  <path d="m363 303c-2.761 0-5-2.239-5-5s2.239-5 5-5 5 2.239 5 5-2.239 5-5 5z" fill="#2b2b2b"/>
  <path d="m388 315.5c4.142 0 7.5 3.338 7.5 7.457l-3e-3 0.043h-14.994l-3e-3 -0.043c0-4.119 3.358-7.457 7.5-7.457z" fill="#b0b0b0"/>
  <path d="m388 330.5c-4.142 0-7.5-3.338-7.5-7.457l3e-3 -0.043h14.994l3e-3 0.043c0 4.119-3.358 7.457-7.5 7.457z" fill="#ededed"/>
  <path d="m388 328c-2.761 0-5-2.239-5-5s2.239-5 5-5 5 2.239 5 5-2.239 5-5 5z" fill="#2b2b2b"/>
  <path d="m388 290.5c4.142 0 7.5 3.338 7.5 7.457l-3e-3 0.043h-14.994l-3e-3 -0.043c0-4.119 3.358-7.457 7.5-7.457z" fill="#b0b0b0"/>
  <path d="m388 305.5c-4.142 0-7.5-3.338-7.5-7.457l3e-3 -0.043h14.994l3e-3 0.043c0 4.119-3.358 7.457-7.5 7.457z" fill="#ededed"/>
  <path d="m388 303c-2.761 0-5-2.239-5-5s2.239-5 5-5 5 2.239 5 5-2.239 5-5 5z" fill="#2b2b2b"/>
  <path d="m413 315.5c4.142 0 7.5 3.338 7.5 7.457l-3e-3 0.043h-14.994l-3e-3 -0.043c0-4.119 3.358-7.457 7.5-7.457z" fill="#b0b0b0"/>
  <path d="m413 330.5c-4.142 0-7.5-3.338-7.5-7.457l3e-3 -0.043h14.994l3e-3 0.043c0 4.119-3.358 7.457-7.5 7.457z" fill="#ededed"/>
  <path d="m413 328c-2.761 0-5-2.239-5-5s2.239-5 5-5 5 2.239 5 5-2.239 5-5 5z" fill="#2b2b2b"/>
  <path d="m413 290.5c4.142 0 7.5 3.338 7.5 7.457l-3e-3 0.043h-14.994l-3e-3 -0.043c0-4.119 3.358-7.457 7.5-7.457z" fill="#b0b0b0"/>
  <path d="m413 305.5c-4.142 0-7.5-3.338-7.5-7.457l3e-3 -0.043h14.994l3e-3 0.043c0 4.119-3.358 7.457-7.5 7.457z" fill="#ededed"/>
  <path d="m413 303c-2.761 0-5-2.239-5-5s2.239-5 5-5 5 2.239 5 5-2.239 5-5 5z" fill="#2b2b2b"/>
  <path d="m313 340.5c4.142 0 7.5 3.338 7.5 7.457l-3e-3 0.043h-14.994l-3e-3 -0.043c0-4.119 3.358-7.457 7.5-7.457z" fill="#b0b0b0"/>
  <path d="m313 355.5c-4.142 0-7.5-3.338-7.5-7.457l3e-3 -0.043h14.994l3e-3 0.043c0 4.119-3.358 7.457-7.5 7.457z" fill="#ededed"/>
  <path d="m313 353c-2.761 0-5-2.239-5-5s2.239-5 5-5 5 2.239 5 5-2.239 5-5 5z" fill="#2b2b2b"/>
  <path d="m338 340.5c4.142 0 7.5 3.338 7.5 7.457l-3e-3 0.043h-14.994l-3e-3 -0.043c0-4.119 3.358-7.457 7.5-7.457z" fill="#b0b0b0"/>
  <path d="m338 355.5c-4.142 0-7.5-3.338-7.5-7.457l3e-3 -0.043h14.994l3e-3 0.043c0 4.119-3.358 7.457-7.5 7.457z" fill="#ededed"/>
  <path d="m338 353c-2.761 0-5-2.239-5-5s2.239-5 5-5 5 2.239 5 5-2.239 5-5 5z" fill="#2b2b2b"/>
  <path d="m363 340.5c4.142 0 7.5 3.338 7.5 7.457l-3e-3 0.043h-14.994l-3e-3 -0.043c0-4.119 3.358-7.457 7.5-7.457z" fill="#b0b0b0"/>
  <path d="m363 355.5c-4.142 0-7.5-3.338-7.5-7.457l3e-3 -0.043h14.994l3e-3 0.043c0 4.119-3.358 7.457-7.5 7.457z" fill="#ededed"/>
  <path d="m363 353c-2.761 0-5-2.239-5-5s2.239-5 5-5 5 2.239 5 5-2.239 5-5 5z" fill="#2b2b2b"/>
  <path d="m388 340.5c4.142 0 7.5 3.338 7.5 7.457l-3e-3 0.043h-14.994l-3e-3 -0.043c0-4.119 3.358-7.457 7.5-7.457z" fill="#b0b0b0"/>
  <path d="m388 355.5c-4.142 0-7.5-3.338-7.5-7.457l3e-3 -0.043h14.994l3e-3 0.043c0 4.119-3.358 7.457-7.5 7.457z" fill="#ededed"/>
  <path d="m388 353c-2.761 0-5-2.239-5-5s2.239-5 5-5 5 2.239 5 5-2.239 5-5 5z" fill="#2b2b2b"/>
  <path d="m413 340.5c4.142 0 7.5 3.338 7.5 7.457l-3e-3 0.043h-14.994l-3e-3 -0.043c0-4.119 3.358-7.457 7.5-7.457z" fill="#b0b0b0"/>
  <path d="m413 355.5c-4.142 0-7.5-3.338-7.5-7.457l3e-3 -0.043h14.994l3e-3 0.043c0 4.119-3.358 7.457-7.5 7.457z" fill="#ededed"/>
  <path d="m413 353c-2.761 0-5-2.239-5-5s2.239-5 5-5 5 2.239 5 5-2.239 5-5 5z" fill="#2b2b2b"/>
  <path d="m438 265.5c4.142 0 7.5 3.338 7.5 7.457l-3e-3 0.043h-14.994l-3e-3 -0.043c0-4.119 3.358-7.457 7.5-7.457z" fill="#b0b0b0"/>
  <path d="m438 280.5c-4.142 0-7.5-3.338-7.5-7.457l3e-3 -0.043h14.994l3e-3 0.043c0 4.119-3.358 7.457-7.5 7.457z" fill="#ededed"/>
  <path d="m438 278c-2.761 0-5-2.239-5-5s2.239-5 5-5 5 2.239 5 5-2.239 5-5 5z" fill="#2b2b2b"/>
  <path d="m438 240.5c4.142 0 7.5 3.338 7.5 7.457l-3e-3 0.043h-14.994l-3e-3 -0.043c0-4.119 3.358-7.457 7.5-7.457z" fill="#b0b0b0"/>
  <path d="m438 255.5c-4.142 0-7.5-3.338-7.5-7.457l3e-3 -0.043h14.994l3e-3 0.043c0 4.119-3.358 7.457-7.5 7.457z" fill="#ededed"/>
  <path d="m438 253c-2.761 0-5-2.239-5-5s2.239-5 5-5 5 2.239 5 5-2.239 5-5 5z" fill="#2b2b2b"/>
  <path d="m463 265.5c4.142 0 7.5 3.338 7.5 7.457l-3e-3 0.043h-14.994l-3e-3 -0.043c0-4.119 3.358-7.457 7.5-7.457z" fill="#b0b0b0"/>
  <path d="m463 280.5c-4.142 0-7.5-3.338-7.5-7.457l3e-3 -0.043h14.994l3e-3 0.043c0 4.119-3.358 7.457-7.5 7.457z" fill="#ededed"/>
  <path d="m463 278c-2.761 0-5-2.239-5-5s2.239-5 5-5 5 2.239 5 5-2.239 5-5 5z" fill="#2b2b2b"/>
  <path d="m463 240.5c4.142 0 7.5 3.338 7.5 7.457l-3e-3 0.043h-14.994l-3e-3 -0.043c0-4.119 3.358-7.457 7.5-7.457z" fill="#b0b0b0"/>
  <path d="m463 255.5c-4.142 0-7.5-3.338-7.5-7.457l3e-3 -0.043h14.994l3e-3 0.043c0 4.119-3.358 7.457-7.5 7.457z" fill="#ededed"/>
  <path d="m463 253c-2.761 0-5-2.239-5-5s2.239-5 5-5 5 2.239 5 5-2.239 5-5 5z" fill="#2b2b2b"/>
  <path d="m488 265.5c4.142 0 7.5 3.338 7.5 7.457l-3e-3 0.043h-14.994l-3e-3 -0.043c0-4.119 3.358-7.457 7.5-7.457z" fill="#b0b0b0"/>
  <path d="m488 280.5c-4.142 0-7.5-3.338-7.5-7.457l3e-3 -0.043h14.994l3e-3 0.043c0 4.119-3.358 7.457-7.5 7.457z" fill="#ededed"/>
  <path d="m488 278c-2.761 0-5-2.239-5-5s2.239-5 5-5 5 2.239 5 5-2.239 5-5 5z" fill="#2b2b2b"/>
  <path d="m488 240.5c4.142 0 7.5 3.338 7.5 7.457l-3e-3 0.043h-14.994l-3e-3 -0.043c0-4.119 3.358-7.457 7.5-7.457z" fill="#b0b0b0"/>
  <path d="m488 255.5c-4.142 0-7.5-3.338-7.5-7.457l3e-3 -0.043h14.994l3e-3 0.043c0 4.119-3.358 7.457-7.5 7.457z" fill="#ededed"/>
  <path d="m488 253c-2.761 0-5-2.239-5-5s2.239-5 5-5 5 2.239 5 5-2.239 5-5 5z" fill="#2b2b2b"/>
  <path d="m513 265.5c4.142 0 7.5 3.338 7.5 7.457l-3e-3 0.043h-14.994l-3e-3 -0.043c0-4.119 3.358-7.457 7.5-7.457z" fill="#b0b0b0"/>
  <path d="m513 280.5c-4.142 0-7.5-3.338-7.5-7.457l3e-3 -0.043h14.994l3e-3 0.043c0 4.119-3.358 7.457-7.5 7.457z" fill="#ededed"/>
  <path d="m513 278c-2.761 0-5-2.239-5-5s2.239-5 5-5 5 2.239 5 5-2.239 5-5 5z" fill="#2b2b2b"/>
  <path d="m513 240.5c4.142 0 7.5 3.338 7.5 7.457l-3e-3 0.043h-14.994l-3e-3 -0.043c0-4.119 3.358-7.457 7.5-7.457z" fill="#b0b0b0"/>
  <path d="m513 255.5c-4.142 0-7.5-3.338-7.5-7.457l3e-3 -0.043h14.994l3e-3 0.043c0 4.119-3.358 7.457-7.5 7.457z" fill="#ededed"/>
  <path d="m513 253c-2.761 0-5-2.239-5-5s2.239-5 5-5 5 2.239 5 5-2.239 5-5 5z" fill="#2b2b2b"/>
  <path d="m538 265.5c4.142 0 7.5 3.338 7.5 7.457l-3e-3 0.043h-14.994l-3e-3 -0.043c0-4.119 3.358-7.457 7.5-7.457z" fill="#b0b0b0"/>
  <path d="m538 280.5c-4.142 0-7.5-3.338-7.5-7.457l3e-3 -0.043h14.994l3e-3 0.043c0 4.119-3.358 7.457-7.5 7.457z" fill="#ededed"/>
  <path d="m538 278c-2.761 0-5-2.239-5-5s2.239-5 5-5 5 2.239 5 5-2.239 5-5 5z" fill="#2b2b2b"/>
  <path d="m538 240.5c4.142 0 7.5 3.338 7.5 7.457l-3e-3 0.043h-14.994l-3e-3 -0.043c0-4.119 3.358-7.457 7.5-7.457z" fill="#b0b0b0"/>
  <path d="m538 255.5c-4.142 0-7.5-3.338-7.5-7.457l3e-3 -0.043h14.994l3e-3 0.043c0 4.119-3.358 7.457-7.5 7.457z" fill="#ededed"/>
  <path d="m538 253c-2.761 0-5-2.239-5-5s2.239-5 5-5 5 2.239 5 5-2.239 5-5 5z" fill="#2b2b2b"/>
  <path d="m438 315.5c4.142 0 7.5 3.338 7.5 7.457l-3e-3 0.043h-14.994l-3e-3 -0.043c0-4.119 3.358-7.457 7.5-7.457z" fill="#b0b0b0"/>
  <path d="m438 330.5c-4.142 0-7.5-3.338-7.5-7.457l3e-3 -0.043h14.994l3e-3 0.043c0 4.119-3.358 7.457-7.5 7.457z" fill="#ededed"/>
  <path d="m438 328c-2.761 0-5-2.239-5-5s2.239-5 5-5 5 2.239 5 5-2.239 5-5 5z" fill="#2b2b2b"/>
  <path d="m438 290.5c4.142 0 7.5 3.338 7.5 7.457l-3e-3 0.043h-14.994l-3e-3 -0.043c0-4.119 3.358-7.457 7.5-7.457z" fill="#b0b0b0"/>
  <path d="m438 305.5c-4.142 0-7.5-3.338-7.5-7.457l3e-3 -0.043h14.994l3e-3 0.043c0 4.119-3.358 7.457-7.5 7.457z" fill="#ededed"/>
  <path d="m438 303c-2.761 0-5-2.239-5-5s2.239-5 5-5 5 2.239 5 5-2.239 5-5 5z" fill="#2b2b2b"/>
  <path d="m463 315.5c4.142 0 7.5 3.338 7.5 7.457l-3e-3 0.043h-14.994l-3e-3 -0.043c0-4.119 3.358-7.457 7.5-7.457z" fill="#b0b0b0"/>
  <path d="m463 330.5c-4.142 0-7.5-3.338-7.5-7.457l3e-3 -0.043h14.994l3e-3 0.043c0 4.119-3.358 7.457-7.5 7.457z" fill="#ededed"/>
  <path d="m463 328c-2.761 0-5-2.239-5-5s2.239-5 5-5 5 2.239 5 5-2.239 5-5 5z" fill="#2b2b2b"/>
  <path d="m463 290.5c4.142 0 7.5 3.338 7.5 7.457l-3e-3 0.043h-14.994l-3e-3 -0.043c0-4.119 3.358-7.457 7.5-7.457z" fill="#b0b0b0"/>
  <path d="m463 305.5c-4.142 0-7.5-3.338-7.5-7.457l3e-3 -0.043h14.994l3e-3 0.043c0 4.119-3.358 7.457-7.5 7.457z" fill="#ededed"/>
  <path d="m463 303c-2.761 0-5-2.239-5-5s2.239-5 5-5 5 2.239 5 5-2.239 5-5 5z" fill="#2b2b2b"/>
  <path d="m488 315.5c4.142 0 7.5 3.338 7.5 7.457l-3e-3 0.043h-14.994l-3e-3 -0.043c0-4.119 3.358-7.457 7.5-7.457z" fill="#b0b0b0"/>
  <path d="m488 330.5c-4.142 0-7.5-3.338-7.5-7.457l3e-3 -0.043h14.994l3e-3 0.043c0 4.119-3.358 7.457-7.5 7.457z" fill="#ededed"/>
  <path d="m488 328c-2.761 0-5-2.239-5-5s2.239-5 5-5 5 2.239 5 5-2.239 5-5 5z" fill="#2b2b2b"/>
  <path d="m488 290.5c4.142 0 7.5 3.338 7.5 7.457l-3e-3 0.043h-14.994l-3e-3 -0.043c0-4.119 3.358-7.457 7.5-7.457z" fill="#b0b0b0"/>
  <path d="m488 305.5c-4.142 0-7.5-3.338-7.5-7.457l3e-3 -0.043h14.994l3e-3 0.043c0 4.119-3.358 7.457-7.5 7.457z" fill="#ededed"/>
  <path d="m488 303c-2.761 0-5-2.239-5-5s2.239-5 5-5 5 2.239 5 5-2.239 5-5 5z" fill="#2b2b2b"/>
  <path d="m513 315.5c4.142 0 7.5 3.338 7.5 7.457l-3e-3 0.043h-14.994l-3e-3 -0.043c0-4.119 3.358-7.457 7.5-7.457z" fill="#b0b0b0"/>
  <path d="m513 330.5c-4.142 0-7.5-3.338-7.5-7.457l3e-3 -0.043h14.994l3e-3 0.043c0 4.119-3.358 7.457-7.5 7.457z" fill="#ededed"/>
  <path d="m513 328c-2.761 0-5-2.239-5-5s2.239-5 5-5 5 2.239 5 5-2.239 5-5 5z" fill="#2b2b2b"/>
  <path d="m513 290.5c4.142 0 7.5 3.338 7.5 7.457l-3e-3 0.043h-14.994l-3e-3 -0.043c0-4.119 3.358-7.457 7.5-7.457z" fill="#b0b0b0"/>
  <path d="m513 305.5c-4.142 0-7.5-3.338-7.5-7.457l3e-3 -0.043h14.994l3e-3 0.043c0 4.119-3.358 7.457-7.5 7.457z" fill="#ededed"/>
  <path d="m513 303c-2.761 0-5-2.239-5-5s2.239-5 5-5 5 2.239 5 5-2.239 5-5 5z" fill="#2b2b2b"/>
  <path d="m538 315.5c4.142 0 7.5 3.338 7.5 7.457l-3e-3 0.043h-14.994l-3e-3 -0.043c0-4.119 3.358-7.457 7.5-7.457z" fill="#b0b0b0"/>
  <path d="m538 330.5c-4.142 0-7.5-3.338-7.5-7.457l3e-3 -0.043h14.994l3e-3 0.043c0 4.119-3.358 7.457-7.5 7.457z" fill="#ededed"/>
  <path d="m538 328c-2.761 0-5-2.239-5-5s2.239-5 5-5 5 2.239 5 5-2.239 5-5 5z" fill="#2b2b2b"/>
  <path d="m538 290.5c4.142 0 7.5 3.338 7.5 7.457l-3e-3 0.043h-14.994l-3e-3 -0.043c0-4.119 3.358-7.457 7.5-7.457z" fill="#b0b0b0"/>
  <path d="m538 305.5c-4.142 0-7.5-3.338-7.5-7.457l3e-3 -0.043h14.994l3e-3 0.043c0 4.119-3.358 7.457-7.5 7.457z" fill="#ededed"/>
  <path d="m538 303c-2.761 0-5-2.239-5-5s2.239-5 5-5 5 2.239 5 5-2.239 5-5 5z" fill="#2b2b2b"/>
  <path d="m438 340.5c4.142 0 7.5 3.338 7.5 7.457l-3e-3 0.043h-14.994l-3e-3 -0.043c0-4.119 3.358-7.457 7.5-7.457z" fill="#b0b0b0"/>
  <path d="m438 355.5c-4.142 0-7.5-3.338-7.5-7.457l3e-3 -0.043h14.994l3e-3 0.043c0 4.119-3.358 7.457-7.5 7.457z" fill="#ededed"/>
  <path d="m438 353c-2.761 0-5-2.239-5-5s2.239-5 5-5 5 2.239 5 5-2.239 5-5 5z" fill="#2b2b2b"/>
  <path d="m463 340.5c4.142 0 7.5 3.338 7.5 7.457l-3e-3 0.043h-14.994l-3e-3 -0.043c0-4.119 3.358-7.457 7.5-7.457z" fill="#b0b0b0"/>
  <path d="m463 355.5c-4.142 0-7.5-3.338-7.5-7.457l3e-3 -0.043h14.994l3e-3 0.043c0 4.119-3.358 7.457-7.5 7.457z" fill="#ededed"/>
  <path d="m463 353c-2.761 0-5-2.239-5-5s2.239-5 5-5 5 2.239 5 5-2.239 5-5 5z" fill="#2b2b2b"/>
  <path d="m488 340.5c4.142 0 7.5 3.338 7.5 7.457l-3e-3 0.043h-14.994l-3e-3 -0.043c0-4.119 3.358-7.457 7.5-7.457z" fill="#b0b0b0"/>
  <path d="m488 355.5c-4.142 0-7.5-3.338-7.5-7.457l3e-3 -0.043h14.994l3e-3 0.043c0 4.119-3.358 7.457-7.5 7.457z" fill="#ededed"/>
  <path d="m488 353c-2.761 0-5-2.239-5-5s2.239-5 5-5 5 2.239 5 5-2.239 5-5 5z" fill="#2b2b2b"/>
  <path d="m513 340.5c4.142 0 7.5 3.338 7.5 7.457l-3e-3 0.043h-14.994l-3e-3 -0.043c0-4.119 3.358-7.457 7.5-7.457z" fill="#b0b0b0"/>
  <path d="m513 355.5c-4.142 0-7.5-3.338-7.5-7.457l3e-3 -0.043h14.994l3e-3 0.043c0 4.119-3.358 7.457-7.5 7.457z" fill="#ededed"/>
  <path d="m513 353c-2.761 0-5-2.239-5-5s2.239-5 5-5 5 2.239 5 5-2.239 5-5 5z" fill="#2b2b2b"/>
  <path d="m538 340.5c4.142 0 7.5 3.338 7.5 7.457l-3e-3 0.043h-14.994l-3e-3 -0.043c0-4.119 3.358-7.457 7.5-7.457z" fill="#b0b0b0"/>
  <path d="m538 355.5c-4.142 0-7.5-3.338-7.5-7.457l3e-3 -0.043h14.994l3e-3 0.043c0 4.119-3.358 7.457-7.5 7.457z" fill="#ededed"/>
  <path d="m538 353c-2.761 0-5-2.239-5-5s2.239-5 5-5 5 2.239 5 5-2.239 5-5 5z" fill="#2b2b2b"/>
 </g>
</svg>
