<?xml version="1.0" encoding="UTF-8"?>
<svg width="410" height="150" version="1.1" viewBox="0 0 410 150" xmlns="http://www.w3.org/2000/svg">
 <g transform="translate(-45,-25)">
  <path d="m455 25v150h-260v-150zm-130 133.75c-2.761 0-5 2.239-5 5s2.239 5 5 5 5-2.239 5-5-2.239-5-5-5zm62.716 0c-2.761 0-5 2.239-5 5s2.239 5 5 5 5-2.239 5-5-2.239-5-5-5zm-21.948 0.102c-2.459 0.718-3.74 2.397-3.992 4.898 0 2.761 2.239 5 5 5s5-2.239 5-5c-0.253-2.501-1.534-4.18-3.993-4.899l-1.007-0.101zm-20.192-0.102c-2.761 0-5 2.239-5 5s2.239 5 5 5 5-2.239 5-5-2.239-5-5-5zm21.2-127.5c-2.761 0-5 2.239-5 5s2.239 5 5 5 5-2.239 5-5c-0.253-2.501-1.534-4.18-3.993-4.898zm-21.2 0c-2.761 0-5 2.239-5 5s2.239 5 5 5 5-2.239 5-5-2.239-5-5-5zm-20.576 0c-2.761 0-5 2.239-5 5s2.239 5 5 5 5-2.239 5-5-2.239-5-5-5zm62.716 0c-2.761 0-5 2.239-5 5s2.239 5 5 5 5-2.239 5-5-2.239-5-5-5z" fill="#111b4e"/>
  <path d="m235 40h-190v120h190z" fill="#aeaeae"/>
  <path d="m115 61.503h-18v18h18z" fill="#4a4a4a"/>
  <path d="m115 120.5h-18v18h18z" fill="#4a4a4a"/>
  <g id="ci_smt_49pin">
   <g id="7pins" fill="#aeaeae">
    <path d="m315.99 75v-3.5h2.333v3.5z"/>
    <path d="m321.39 75v-3.5h2.333v3.5z"/>
    <path d="m326.79 75v-3.5h2.333v3.5z"/>
    <path d="m332.19 75v-3.5h2.333v3.5z"/>
    <path d="m337.59 75v-3.5h2.333v3.5z"/>
    <path d="m342.99 75v-3.5h2.333v3.5z"/>
    <path d="m348.39 75v-3.5h2.333v3.5z"/>
   </g>
   <g fill="#aeaeae">
    <path d="m315.99 128.5v-3.5h2.333v3.5z"/>
    <path d="m321.39 128.5v-3.5h2.333v3.5z"/>
    <path d="m326.79 128.5v-3.5h2.333v3.5z"/>
    <path d="m332.19 128.5v-3.5h2.333v3.5z"/>
    <path d="m337.59 128.5v-3.5h2.333v3.5z"/>
    <path d="m342.99 128.5v-3.5h2.333v3.5z"/>
    <path d="m348.39 128.5v-3.5h2.333v3.5z"/>
   </g>
   <g fill="#aeaeae">
    <path d="m308.36 117.37h-3.5v-2.333h3.5z"/>
    <path d="m308.36 111.97h-3.5v-2.333h3.5z"/>
    <path d="m308.36 106.57h-3.5v-2.333h3.5z"/>
    <path d="m308.36 101.17h-3.5v-2.333h3.5z"/>
    <path d="m308.36 95.766h-3.5v-2.333h3.5z"/>
    <path d="m308.36 90.366h-3.5v-2.333h3.5z"/>
    <path d="m308.36 84.966h-3.5v-2.333h3.5z"/>
   </g>
   <g fill="#aeaeae">
    <path d="m361.86 117.37h-3.5v-2.333h3.5z"/>
    <path d="m361.86 111.97h-3.5v-2.333h3.5z"/>
    <path d="m361.86 106.57h-3.5v-2.333h3.5z"/>
    <path d="m361.86 101.17h-3.5v-2.333h3.5z"/>
    <path d="m361.86 95.766h-3.5v-2.333h3.5z"/>
    <path d="m361.86 90.366h-3.5v-2.333h3.5z"/>
    <path d="m361.86 84.966h-3.5v-2.333h3.5z"/>
   </g>
   <path d="m308.36 75h50v50h-50z" fill="#212121"/>
  </g>
  <g id="header">
   <g id="perf_male_square">
    <path d="m439.68 54.25h9c1.657 0 3 1.343 3 3v9c0 1.657-1.343 3-3 3h-9c-1.657 0-3-1.343-3-3v-9c0-1.657 1.343-3 3-3z" fill="#bfbfbf"/>
    <path d="m447.18 65.226c0 1.657-1.343 3-3 3s-3-1.343-3-3v-3.6h6z" fill="#737373"/>
    <path d="m444.18 65.25c-1.933 0-3.5-1.567-3.5-3.5s1.567-3.5 3.5-3.5 3.5 1.567 3.5 3.5-1.567 3.5-3.5 3.5z" fill="#ededed"/>
    <path d="m444.18 58.25c1.933 0 3.5 1.567 3.5 3.5s-1.567 3.5-3.5 3.5-3.5-1.567-3.5-3.5 1.567-3.5 3.5-3.5zm0 0.5c-1.657 0-3 1.343-3 3s1.343 3 3 3 3-1.343 3-3-1.343-3-3-3z" fill="#737373"/>
   </g>
   <path d="m439.68 130.75h9c1.657 0 3 1.343 3 3v9c0 1.657-1.343 3-3 3h-9c-1.657 0-3-1.343-3-3v-9c0-1.657 1.343-3 3-3z" fill="#bfbfbf"/>
   <path d="m447.18 141.73c0 1.657-1.343 3-3 3s-3-1.343-3-3v-3.6h6z" fill="#737373"/>
   <path d="m444.18 141.75c-1.933 0-3.5-1.567-3.5-3.5s1.567-3.5 3.5-3.5 3.5 1.567 3.5 3.5-1.567 3.5-3.5 3.5z" fill="#ededed"/>
   <path d="m444.18 134.75c1.933 0 3.5 1.567 3.5 3.5s-1.567 3.5-3.5 3.5-3.5-1.567-3.5-3.5 1.567-3.5 3.5-3.5zm0 0.5c-1.657 0-3 1.343-3 3s1.343 3 3 3 3-1.343 3-3-1.343-3-3-3z" fill="#737373"/>
   <path d="m439.68 79.75h9c1.657 0 3 1.343 3 3v9c0 1.657-1.343 3-3 3h-9c-1.657 0-3-1.343-3-3v-9c0-1.657 1.343-3 3-3z" fill="#bfbfbf"/>
   <path d="m447.18 90.726c0 1.657-1.343 3-3 3s-3-1.343-3-3v-3.6h6z" fill="#737373"/>
   <path d="m444.18 90.75c-1.933 0-3.5-1.567-3.5-3.5s1.567-3.5 3.5-3.5 3.5 1.567 3.5 3.5-1.567 3.5-3.5 3.5z" fill="#ededed"/>
   <path d="m444.18 83.75c1.933 0 3.5 1.567 3.5 3.5s-1.567 3.5-3.5 3.5-3.5-1.567-3.5-3.5 1.567-3.5 3.5-3.5zm0 0.5c-1.657 0-3 1.343-3 3s1.343 3 3 3 3-1.343 3-3-1.343-3-3-3z" fill="#737373"/>
   <path d="m439.68 105.25h9c1.657 0 3 1.343 3 3v9c0 1.657-1.343 3-3 3h-9c-1.657 0-3-1.343-3-3v-9c0-1.657 1.343-3 3-3z" fill="#bfbfbf"/>
   <path d="m447.18 116.23c0 1.657-1.343 3-3 3s-3-1.343-3-3v-3.6h6z" fill="#737373"/>
   <path d="m444.18 116.25c-1.933 0-3.5-1.567-3.5-3.5s1.567-3.5 3.5-3.5 3.5 1.567 3.5 3.5-1.567 3.5-3.5 3.5z" fill="#ededed"/>
   <path d="m444.18 109.25c1.933 0 3.5 1.567 3.5 3.5s-1.567 3.5-3.5 3.5-3.5-1.567-3.5-3.5 1.567-3.5 3.5-3.5zm0 0.5c-1.657 0-3 1.343-3 3s1.343 3 3 3 3-1.343 3-3-1.343-3-3-3z" fill="#737373"/>
   <path d="m439.68 156.25h9c1.657 0 3 1.343 3 3v9c0 1.657-1.343 3-3 3h-9c-1.657 0-3-1.343-3-3v-9c0-1.657 1.343-3 3-3z" fill="#bfbfbf"/>
   <path d="m447.18 167.23c0 1.657-1.343 3-3 3s-3-1.343-3-3v-3.6h6z" fill="#737373"/>
   <path d="m444.18 167.25c-1.933 0-3.5-1.567-3.5-3.5s1.567-3.5 3.5-3.5 3.5 1.567 3.5 3.5-1.567 3.5-3.5 3.5z" fill="#ededed"/>
   <path d="m444.18 160.25c1.933 0 3.5 1.567 3.5 3.5s-1.567 3.5-3.5 3.5-3.5-1.567-3.5-3.5 1.567-3.5 3.5-3.5zm0 0.5c-1.657 0-3 1.343-3 3s1.343 3 3 3 3-1.343 3-3-1.343-3-3-3z" fill="#737373"/>
   <path d="m439.68 28.75h9c1.657 0 3 1.343 3 3v9c0 1.657-1.343 3-3 3h-9c-1.657 0-3-1.343-3-3v-9c0-1.657 1.343-3 3-3z" fill="#bfbfbf"/>
   <path d="m447.18 39.726c0 1.657-1.343 3-3 3s-3-1.343-3-3v-3.6h6z" fill="#737373"/>
   <path d="m444.18 39.75c-1.933 0-3.5-1.567-3.5-3.5s1.567-3.5 3.5-3.5 3.5 1.567 3.5 3.5-1.567 3.5-3.5 3.5z" fill="#ededed"/>
   <path d="m444.18 32.75c1.933 0 3.5 1.567 3.5 3.5s-1.567 3.5-3.5 3.5-3.5-1.567-3.5-3.5 1.567-3.5 3.5-3.5zm0 0.5c-1.657 0-3 1.343-3 3s1.343 3 3 3 3-1.343 3-3-1.343-3-3-3z" fill="#737373"/>
  </g>
  <g id="label" transform="translate(-6.1374 .21946)">
   <text transform="translate(423.62 36)"><tspan x="-12.923" y="5" fill="#d6d6d6" font-family="FiraCode-Regular" font-size="14px">DTR</tspan></text>
   <text transform="translate(423.75 60.5)"><tspan x="-12.923" y="5" fill="#d6d6d6" font-family="FiraCode-Regular" font-size="14px">RXD</tspan></text>
   <text transform="translate(423.75 86.79)"><tspan x="-12.923" y="5" fill="#d6d6d6" font-family="FiraCode-Regular" font-size="14px">TXD</tspan></text>
   <text transform="translate(423.75 112.48)"><tspan x="-12.923" y="5" fill="#d6d6d6" font-family="FiraCode-Regular" font-size="14px">+5V</tspan></text>
   <text transform="translate(423.62 138.05)"><tspan x="-12.923" y="5" fill="#d6d6d6" font-family="FiraCode-Regular" font-size="14px">GND</tspan></text>
   <text transform="translate(423.75 164)"><tspan x="-12.923" y="5" fill="#d6d6d6" font-family="FiraCode-Regular" font-size="14px">3V3</tspan></text>
  </g>
  <g id="contacts">
   <g id="perf">
    <path d="m392.22 28.75c1.657 0 3 1.343 3 3v9c0 1.657-1.343 3-3 3h-9.001c-1.656 0-2.999-1.343-2.999-3l-1e-3 -9c1e-3 -1.657 1.344-3 3.001-3zm-4.5 2.5c-2.761 0-5 2.239-5 5s2.239 5 5 5 5-2.239 5-5-2.239-5-5-5z" fill="#d3c12b"/>
   </g>
   <g fill="#d3c12b">
    <path d="m366.78 28.75c4.142 0 7.5 3.338 7.5 7.457l-3e-3 0.043h-2.497c0-2.761-2.239-5-5-5s-5 2.239-5 5h-2.497l-3e-3 -0.043c0-4.119 3.358-7.457 7.5-7.457z"/>
    <path d="m374.27 36.25 3e-3 0.043c0 4.119-3.358 7.457-7.5 7.457s-7.5-3.338-7.5-7.457l3e-3 -0.043h2.497c0 2.761 2.239 5 5 5s5-2.239 5-5z"/>
   </g>
   <g fill="#d3c12b">
    <path d="m345.58 28.75c4.142 0 7.5 3.338 7.5 7.457l-3e-3 0.043h-2.497c0-2.761-2.239-5-5-5s-5 2.239-5 5h-2.497l-3e-3 -0.043c0-4.119 3.358-7.457 7.5-7.457z"/>
    <path d="m353.07 36.25 3e-3 0.043c0 4.119-3.358 7.457-7.5 7.457s-7.5-3.338-7.5-7.457l3e-3 -0.043h2.497c0 2.761 2.239 5 5 5s5-2.239 5-5z"/>
   </g>
   <g fill="#d3c12b">
    <path d="m325 28.75c4.142 0 7.5 3.338 7.5 7.457l-3e-3 0.043h-2.497c0-2.761-2.239-5-5-5s-5 2.239-5 5h-2.497l-3e-3 -0.043c0-4.119 3.358-7.457 7.5-7.457z"/>
    <path d="m332.5 36.25 3e-3 0.043c0 4.119-3.358 7.457-7.5 7.457s-7.5-3.338-7.5-7.457l3e-3 -0.043h2.497c0 2.761 2.239 5 5 5s5-2.239 5-5z"/>
   </g>
   <path d="m392.22 156.25c1.656 0 3 1.343 3 3v9c0 1.657-1.344 3-3 3h-9.001c-1.656 0-2.999-1.343-2.999-3l-1e-3 -9c1e-3 -1.657 1.344-3 3.001-3zm-4.5 2.5c-2.761 0-5 2.239-5 5s2.239 5 5 5 5-2.239 5-5-2.239-5-5-5z" fill="#d3c12b"/>
   <g fill="#d3c12b">
    <path d="m366.78 156.25c4.142 0 7.5 3.338 7.5 7.457l-3e-3 0.043h-2.497c0-2.761-2.239-5-5-5s-5 2.239-5 5h-2.497l-3e-3 -0.043c0-4.119 3.358-7.457 7.5-7.457z"/>
    <path d="m374.27 163.75 3e-3 0.043c0 4.119-3.358 7.457-7.5 7.457s-7.5-3.338-7.5-7.457l3e-3 -0.043h2.497c0 2.761 2.239 5 5 5s5-2.239 5-5z"/>
   </g>
   <g fill="#d3c12b">
    <path d="m345.58 156.25c4.142 0 7.5 3.338 7.5 7.457l-3e-3 0.043h-2.497c0-2.761-2.239-5-5-5s-5 2.239-5 5h-2.497l-3e-3 -0.043c0-4.119 3.358-7.457 7.5-7.457z"/>
    <path d="m353.07 163.75 3e-3 0.043c0 4.119-3.358 7.457-7.5 7.457s-7.5-3.338-7.5-7.457l3e-3 -0.043h2.497c0 2.761 2.239 5 5 5s5-2.239 5-5z"/>
   </g>
   <g fill="#d3c12b">
    <path d="m325 156.25c4.142 0 7.5 3.338 7.5 7.457l-3e-3 0.043h-2.497c0-2.761-2.239-5-5-5s-5 2.239-5 5h-2.497l-3e-3 -0.043c0-4.119 3.358-7.457 7.5-7.457z"/>
    <path d="m332.5 163.75 3e-3 0.043c0 4.119-3.358 7.457-7.5 7.457s-7.5-3.338-7.5-7.457l3e-3 -0.043h2.497c0 2.761 2.239 5 5 5s5-2.239 5-5z"/>
   </g>
  </g>
 </g>
</svg>
