<?xml version="1.0" encoding="UTF-8"?>
<svg width="62" height="80.262" version="1.1" viewBox="0 0 62 80.262" xmlns="http://www.w3.org/2000/svg">
 <g transform="translate(-19,-9.869)">
  <path d="m70 15.854c0-3.306 2.238-5.985 5-5.985s5 2.679 5 5.985v7.183h-10z" fill="#aeaeae"/>
  <path d="m75 9.869c2.762 0 5 2.679 5 5.985v7.183h-10v-7.183c0-3.306 2.238-5.985 5-5.985zm0 1c-2.166 0-4 2.196-4 4.985v6.183h8v-6.183c0-2.789-1.834-4.985-4-4.985z" fill="#505050"/>
  <path d="m20 15.854c0-3.306 2.238-5.985 5-5.985s5 2.679 5 5.985v7.183h-10z" fill="#aeaeae"/>
  <path d="m25 9.869c2.762 0 5 2.679 5 5.985v7.183h-10v-7.183c0-3.306 2.238-5.985 5-5.985zm0 1c-2.166 0-4 2.196-4 4.985v6.183h8v-6.183c0-2.789-1.834-4.985-4-4.985z" fill="#505050"/>
  <path d="m30 84.146c0 3.306-2.238 5.985-5 5.985s-5-2.679-5-5.985v-7.183h10z" fill="#aeaeae"/>
  <path d="m30 76.963v7.183c0 3.306-2.238 5.985-5 5.985s-5-2.679-5-5.985v-7.183zm-1 1h-8v6.183c0 2.789 1.834 4.985 4 4.985s4-2.196 4-4.985z" fill="#505050"/>
  <path d="m80 84.146c0 3.306-2.238 5.985-5 5.985s-5-2.679-5-5.985v-7.183h10z" fill="#aeaeae"/>
  <path d="m80 76.963v7.183c0 3.306-2.238 5.985-5 5.985s-5-2.679-5-5.985v-7.183zm-1 1h-8v6.183c0 2.789 1.834 4.985 4 4.985s4-2.196 4-4.985z" fill="#505050"/>
  <path d="m22.242 18.992h55.516c1.791 0 3.242 1.577 3.242 3.523v54.953c0 1.946-1.451 3.524-3.242 3.524h-55.516c-1.791 0-3.242-1.578-3.242-3.524v-54.953c0-1.946 1.451-3.523 3.242-3.523z" fill="#959595"/>
  <path d="m77.758 18.992c1.791 0 3.242 1.577 3.242 3.523v54.953c0 1.946-1.451 3.524-3.242 3.524h-55.516c-1.791 0-3.242-1.578-3.242-3.524v-54.953c0-1.946 1.451-3.523 3.242-3.523zm0 1h-55.516c-1.219 0-2.242 1.112-2.242 2.523v54.953c0 1.412 1.023 2.524 2.242 2.524h55.516c1.219 0 2.242-1.112 2.242-2.524v-54.953c0-1.411-1.023-2.523-2.242-2.523z" fill="#505050"/>
  <path d="m50 64.992c-8.284 0-15-6.716-15-15 0-8.285 6.716-15 15-15s15 6.715 15 15c0 8.284-6.716 15-15 15z" fill="#712222"/>
  <path d="m50 34.992c8.284 0 15 6.715 15 15 0 8.284-6.716 15-15 15s-15-6.716-15-15c0-8.285 6.716-15 15-15zm0 2c-7.18 0-13 5.82-13 13 0 7.179 5.82 13 13 13s13-5.821 13-13c0-7.18-5.82-13-13-13z" fill="#4d1919"/>
  <g fill="#505050">
   <path d="m29.5 33.992c-2.485 0-4.5-2.015-4.5-4.5 0-2.486 2.015-4.5 4.5-4.5s4.5 2.014 4.5 4.5c0 2.485-2.015 4.5-4.5 4.5z"/>
   <path d="m70.5 33.992c-2.485 0-4.5-2.015-4.5-4.5 0-2.486 2.015-4.5 4.5-4.5s4.5 2.014 4.5 4.5c0 2.485-2.015 4.5-4.5 4.5z"/>
   <path d="m70.5 74.992c-2.485 0-4.5-2.015-4.5-4.5 0-2.486 2.015-4.5 4.5-4.5s4.5 2.014 4.5 4.5c0 2.485-2.015 4.5-4.5 4.5z"/>
   <path d="m29.5 74.992c-2.485 0-4.5-2.015-4.5-4.5 0-2.486 2.015-4.5 4.5-4.5s4.5 2.014 4.5 4.5c0 2.485-2.015 4.5-4.5 4.5z"/>
  </g>
 </g>
</svg>
