<?xml version="1.0" encoding="UTF-8"?>
<svg width="59.483" height="18" version="1.1" viewBox="0 0 59.483 18" xmlns="http://www.w3.org/2000/svg">
 <defs>
  <clipPath id="Clip_1">
   <path d="m68.019 41v18h-3.5v-18z"/>
  </clipPath>
  <filter id="Shadow_2" x="-.3871" y="-.2" width="1.7742" height="1.4">
   <feGaussianBlur in="SourceAlpha" stdDeviation="2.5"/>
   <feOffset dx="0" dy="0" result="offsetblur"/>
   <feFlood flood-color="#FFF400"/>
   <feComposite in2="offsetblur" operator="in"/>
  </filter>
 </defs>
 <g transform="translate(-20.858 -41)">
  <path d="m74.355 45c3.306 0 5.986 2.238 5.986 5s-2.68 5-5.986 5h-7.182v-10z" fill="#959595"/>
  <path d="m74.355 45c3.306 0 5.986 2.238 5.986 5s-2.68 5-5.986 5h-7.182v-10zm0 1h-6.182v8h6.182c2.79 0 4.986-1.834 4.986-4s-2.196-4-4.986-4z" fill="#505050"/>
  <path d="m26.844 55c-3.306 0-5.986-2.238-5.986-5s2.68-5 5.986-5h7.183v10z" fill="#959595"/>
  <path d="m34.027 45v10h-7.183c-3.306 0-5.986-2.238-5.986-5s2.68-5 5.986-5zm-1 1h-6.183c-2.79 0-4.986 1.834-4.986 4s2.196 4 4.986 4h6.183z" fill="#505050"/>
  <path d="m70 41v18h-5.471c-3.163-0.265-4.183-1.015-6.217-1.035-2.857-0.027-5.715 0.017-8.572 5e-3 -8.219-0.035-2.511-2e-3 -8.052-5e-3 -1.799 1e-3 -4.179 1.052-6.217 1.035v-1e-3c-2.037-0.017-5.47 1e-3 -5.471 1e-3v-18c0 1e-3 3.434 0.018 5.471 1e-3v-1e-3c2.037-0.017 4.418 0.808 6.217 0.808l8.052-6e-3c2.857 2e-3 5.715 4e-3 8.572 5e-3 1.799 0 4.18-0.824 6.217-0.807 1.824 0.012 3.647 0.01 5.471 0z" fill="#d8be83"/>
  <path d="m70 41v18h-5.471c-3.163-0.265-4.183-1.015-6.217-1.035-2.857-0.027-5.715 0.017-8.572 5e-3 -8.219-0.035-2.511-2e-3 -8.052-5e-3 -1.799 1e-3 -4.179 1.052-6.217 1.035v-1e-3c-2.037-0.017-5.47 1e-3 -5.471 1e-3v-18c0 1e-3 3.434 0.018 5.471 1e-3v-1e-3c2.037-0.017 4.418 0.808 6.217 0.808l8.052-6e-3c2.857 2e-3 5.715 4e-3 8.572 5e-3 1.799 0 4.18-0.824 6.217-0.807 1.824 0.012 3.647 0.01 5.471 0zm-5.479 1c-0.601-5e-3 -1.276 0.07-2.182 0.228-0.243 0.043-0.472 0.085-0.855 0.158-1.723 0.327-2.347 0.421-3.172 0.421h-0.017c-2.098 0-3.777-1e-3 -7.554-4e-3 -0.501-1e-3 -0.501-1e-3 -1-1e-3l-8.053 6e-3c-0.825 0-1.45-0.095-3.173-0.422-0.383-0.072-0.613-0.115-0.855-0.157-1.524-0.222-0.8-0.154-2.17-0.228h-0.011c-0.897 7e-3 -2.125 9e-3 -3.51 6e-3 -0.808-2e-3 -0.485-1e-3 -0.969-2e-3v15.991c0.489-2e-3 0.166-1e-3 0.97-3e-3 1.393-3e-3 2.613-1e-3 3.509 6e-3h0.012c1.34-0.096 0.63-9e-3 2.124-0.289 0.239-0.053 0.466-0.107 0.845-0.199 1.744-0.424 2.378-0.546 3.229-0.546 1.623 1e-3 2.379-1e-3 2.735-5e-3 0.104-2e-3 0.104-2e-3 0.184-3e-3 0.35-6e-3 1.066-4e-3 5.136 0.013 0.805 4e-3 1.632 3e-3 2.713-1e-3 0.295-1e-3 0.531-2e-3 1.061-5e-3 2.399-0.01 3.467-0.011 4.803 1e-3 0.668 7e-3 1.265 0.081 1.95 0.227 0.331 0.07 1.479 0.352 1.521 0.362 0.947 0.222 1.774 0.362 2.737 0.446h4.471v-15.997l-1.855 5e-3z" fill="#c5aa6d"/>
  <path d="m32.415 41h4v18h-4z" fill="#edba17"/>
  <path d="m41.521 41.738h4v16.179h-4z" fill="#edba17"/>
  <path d="m48 41.738h4v16.179h-4z" fill="#89681f"/>
  <path d="m64.519 41h3.5v18h-3.5z" fill="#e0f70a"/>
  <g fill="rgba(0,0,0,0.75)">
   <path d="m58.519 35h15.5v30h-15.5zm9.5 6h-3.5v18h3.5z" clip-path="url(#Clip_1)" filter="url(#Shadow_2)"/>
   <path d="m58.519 36.25h15.5l-1.25-1.25v30l1.25-1.25h-15.5l1.25 1.25v-30zm0-2.5c-0.691 0-1.25 0.56-1.25 1.25v30c0 0.69 0.559 1.25 1.25 1.25h15.5c0.69 0 1.25-0.56 1.25-1.25v-30c0-0.69-0.56-1.25-1.25-1.25zm9.5 6h-3.5c-0.691 0-1.25 0.56-1.25 1.25v18c0 0.69 0.559 1.25 1.25 1.25h3.5c0.69 0 1.25-0.56 1.25-1.25v-18c0-0.69-0.56-1.25-1.25-1.25zm0 2.5-1.25-1.25v18l1.25-1.25h-3.5l1.25 1.25v-18l-1.25 1.25z" clip-path="url(#Clip_1)" filter="url(#Shadow_2)"/>
  </g>
 </g>
</svg>
