<?xml version="1.0" encoding="UTF-8"?>
<svg width="63.857" height="78.094" version="1.1" viewBox="0 0 63.857 78.094" xmlns="http://www.w3.org/2000/svg">
 <g transform="translate(145.13 126.98)">
  <g stroke-width="1.0869">
   <path d="m-145.13-117.93v59.997a9.0483 9.0483 45 0 0 9.0483 9.0483h51.947a2.8626 2.8626 135 0 0 2.8626-2.8626v-11.188a1.5632 1.5632 45 0 0-1.5632-1.5632h-6.1775a1.7535 1.7535 45 0 1-1.7535-1.7535v-10.769a1.5129 1.5129 135 0 1 1.5129-1.5129h6.0299a1.9513 1.9513 135 0 0 1.9513-1.9513v-15.917a1.8118 1.8118 45 0 0-1.8118-1.8118h-5.6043a2.0781 2.0781 45 0 1-2.0781-2.0781v-9.1131a1.9592 1.9592 135 0 1 1.9592-1.9592h5.1854a2.3495 2.3495 135 0 0 2.3495-2.3495v-9.3828a3.8829 3.8829 45 0 0-3.8829-3.8829h-5.6112-45.315a9.0483 9.0483 135 0 0-9.0483 9.0483z" fill="#aeaeae"/>
   <path d="m-136.08-126.98c-3.7204 0.0328-7.0415 2.3396-8.3711 5.8145h63.18v-3.9994a1.8151 1.8151 45 0 0-1.8151-1.8151h-7.679z" fill="#828282"/>
   <path d="m-136.08-48.884c-3.7204-0.03278-7.0415-2.3396-8.3711-5.8145h63.18v4.2634a1.5511 1.5511 135 0 1-1.5511 1.5511h-7.943z" fill="#828282"/>
  </g>
  <rect x="-102.17" y="-106.32" width="4.6521" height="8.4809" fill="none" stroke="#828282" stroke-width=".5"/>
  <rect x="-102.34" y="-75.465" width="4.6521" height="8.4809" fill="none" stroke="#828282" stroke-width=".5"/>
 </g>
</svg>
