<?xml version="1.0" encoding="UTF-8"?>
<!-- Created with Inkscape (http://www.inkscape.org/) -->
<svg width="5.1598mm" height="5.0802mm" version="1.1" viewBox="0 0 5.1598 5.0802" xmlns="http://www.w3.org/2000/svg">
 <g transform="translate(-22.645 -28.882)">
  <path transform="scale(.26458)" d="m87.627 109.31c-1.0469 0-1.8887 0.8437-1.8887 1.8906v15.117c0 1.0469 0.84174 1.8906 1.8887 1.8906h5.8203c1.0469 0 1.8906-0.8437 1.8906-1.8906 0 1.0469 0.8437 1.8906 1.8906 1.8906h5.8203c1.0469 0 1.8887-0.8437 1.8887-1.8906v-15.117c0-1.0469-0.84174-1.8906-1.8887-1.8906h-5.8203c-1.0469 0-1.8906 0.8437-1.8906 1.8906 0-1.0469-0.8437-1.8906-1.8906-1.8906z" fill="#4d4d4d" stroke="#282828" stroke-width=".30236"/>
  <g fill="#c8c8c8">
   <rect x="23.504" y="32.161" width=".87737" height=".87737"/>
   <rect x="23.504" y="29.879" width=".87737" height=".87737"/>
   <rect x="26.044" y="32.161" width=".87737" height=".87737"/>
   <rect x="26.044" y="29.879" width=".87737" height=".87737"/>
  </g>
 </g>
</svg>
