<?xml version="1.0" encoding="UTF-8"?>
<svg width="57" height="57" version="1.1" viewBox="0 0 57 57" xmlns="http://www.w3.org/2000/svg">
 <g transform="translate(-101,-46)">
  <g id="8pins" fill="#aeaeae">
   <path d="m154.5 54.5h3.5v2.333h-3.5z"/>
   <path d="m154.5 59.9h3.5v2.333h-3.5z"/>
   <path d="m154.5 65.3h3.5v2.333h-3.5z"/>
   <path d="m154.5 70.7h3.5v2.333h-3.5z"/>
   <path d="m154.5 76.1h3.5v2.333h-3.5z"/>
   <path d="m154.5 81.5h3.5v2.333h-3.5z"/>
   <path d="m154.5 86.9h3.5v2.333h-3.5z"/>
   <path d="m154.5 92.5h3.5v2.333h-3.5z"/>
  </g>
  <g fill="#aeaeae">
   <path d="m101 54.5h3.5v2.333h-3.5z"/>
   <path d="m101 59.9h3.5v2.333h-3.5z"/>
   <path d="m101 65.3h3.5v2.333h-3.5z"/>
   <path d="m101 70.7h3.5v2.333h-3.5z"/>
   <path d="m101 76.1h3.5v2.333h-3.5z"/>
   <path d="m101 81.5h3.5v2.333h-3.5z"/>
   <path d="m101 86.9h3.5v2.333h-3.5z"/>
   <path d="m101 92.5h3.5v2.333h-3.5z"/>
  </g>
  <g fill="#aeaeae">
   <path d="m109.33 103v-3.5h2.334v3.5z"/>
   <path d="m114.73 103v-3.5h2.334v3.5z"/>
   <path d="m120.13 103v-3.5h2.334v3.5z"/>
   <path d="m125.53 103v-3.5h2.334v3.5z"/>
   <path d="m130.93 103v-3.5h2.334v3.5z"/>
   <path d="m136.33 103v-3.5h2.334v3.5z"/>
   <path d="m141.73 103v-3.5h2.334v3.5z"/>
   <path d="m147.33 103v-3.5h2.334v3.5z"/>
  </g>
  <g fill="#aeaeae">
   <path d="m109.72 49.5v-3.5h2.333v3.5z"/>
   <path d="m115.12 49.5v-3.5h2.333v3.5z"/>
   <path d="m120.52 49.5v-3.5h2.333v3.5z"/>
   <path d="m125.92 49.5v-3.5h2.333v3.5z"/>
   <path d="m131.32 49.5v-3.5h2.333v3.5z"/>
   <path d="m136.72 49.5v-3.5h2.333v3.5z"/>
   <path d="m142.12 49.5v-3.5h2.333v3.5z"/>
   <path d="m147.72 49.5v-3.5h2.333v3.5z"/>
  </g>
  <path d="m104.5 49.5h50v50h-50z" fill="#212121"/>
 </g>
</svg>
