<?xml version="1.0" encoding="UTF-8"?>
<svg width="57" height="57" version="1.1" viewBox="0 0 57 57" xmlns="http://www.w3.org/2000/svg">
 <g transform="translate(-77.16,-43.446)">
  <g id="7pins" fill="#aeaeae">
   <path d="m88.293 46.946v-3.5h2.333v3.5z"/>
   <path d="m93.693 46.946v-3.5h2.333v3.5z"/>
   <path d="m99.093 46.946v-3.5h2.333v3.5z"/>
   <path d="m104.49 46.946v-3.5h2.333v3.5z"/>
   <path d="m109.89 46.946v-3.5h2.333v3.5z"/>
   <path d="m115.29 46.946v-3.5h2.333v3.5z"/>
   <path d="m120.69 46.946v-3.5h2.333v3.5z"/>
  </g>
  <g fill="#aeaeae">
   <path d="m88.293 100.45v-3.5h2.333v3.5z"/>
   <path d="m93.693 100.45v-3.5h2.333v3.5z"/>
   <path d="m99.093 100.45v-3.5h2.333v3.5z"/>
   <path d="m104.49 100.45v-3.5h2.333v3.5z"/>
   <path d="m109.89 100.45v-3.5h2.333v3.5z"/>
   <path d="m115.29 100.45v-3.5h2.333v3.5z"/>
   <path d="m120.69 100.45v-3.5h2.333v3.5z"/>
  </g>
  <g fill="#aeaeae">
   <path d="m80.66 89.312h-3.5v-2.333h3.5z"/>
   <path d="m80.66 83.912h-3.5v-2.333h3.5z"/>
   <path d="m80.66 78.512h-3.5v-2.333h3.5z"/>
   <path d="m80.66 73.112h-3.5v-2.333h3.5z"/>
   <path d="m80.66 67.712h-3.5v-2.333h3.5z"/>
   <path d="m80.66 62.312h-3.5v-2.333h3.5z"/>
   <path d="m80.66 56.912h-3.5v-2.333h3.5z"/>
  </g>
  <g fill="#aeaeae">
   <path d="m134.16 89.312h-3.5v-2.333h3.5z"/>
   <path d="m134.16 83.912h-3.5v-2.333h3.5z"/>
   <path d="m134.16 78.512h-3.5v-2.333h3.5z"/>
   <path d="m134.16 73.112h-3.5v-2.333h3.5z"/>
   <path d="m134.16 67.712h-3.5v-2.333h3.5z"/>
   <path d="m134.16 62.312h-3.5v-2.333h3.5z"/>
   <path d="m134.16 56.912h-3.5v-2.333h3.5z"/>
  </g>
  <path d="m80.66 46.946h50v50h-50z" fill="#212121"/>
 </g>
</svg>
