<?xml version="1.0" encoding="UTF-8"?>
<svg width="15" height="15" version="1.1" viewBox="0 0 15 15" xmlns="http://www.w3.org/2000/svg">
 <g id="hole">
  <path d="M7.5,0 C11.642,0 15,3.338 15,7.457 L14.997,7.5 L0.003,7.5 L0,7.457 C0,3.338 3.358,0 7.5,0 z" fill="#B0B0B0"/>
  <path d="m7.5 15c-4.142 0-7.5-3.338-7.5-7.457l3e-3 -0.043h14.994l3e-3 0.043c0 4.119-3.358 7.457-7.5 7.457z" fill="#EDEDED"/>
  <path d="m7.5 12.5c-2.761 0-5-2.239-5-5s2.239-5 5-5 5 2.239 5 5-2.239 5-5 5z" fill="#2B2B2B"/>
 </g>
</svg>
